<?xml version="1.0" standalone="no"?><!DOCTYPE svg PUBLIC "-//W3C//DTD SVG 1.1//EN" "http://www.w3.org/Graphics/SVG/1.1/DTD/svg11.dtd"><svg t="1618059370074" class="icon" viewBox="0 0 1229 1024" version="1.1" xmlns="http://www.w3.org/2000/svg" p-id="18755" xmlns:xlink="http://www.w3.org/1999/xlink" width="240.0390625" height="200"><defs><style type="text/css"></style></defs><path d="M626.102857 1024l0-269.165714-468.114286 0c-70.217143 0-122.88-58.514286-122.88-122.88l0-234.057143c0-70.217143 58.514286-122.88 122.88-122.88l468.114286 0L626.102857 0l526.628571 409.6c35.108571 23.405714 52.662857 58.514286 52.662857 99.474286 0 40.96-17.554286 76.068571-52.662857 99.474286L626.102857 1024zM152.137143 327.68c-35.108571 0-64.365714 29.257143-64.365714 64.365714l0 234.057143c0 35.108571 29.257143 64.365714 64.365714 64.365714l526.628571 0 0 204.8 433.005714-339.382857c17.554286-11.702857 29.257143-35.108571 29.257143-52.662857 0-23.405714-11.702857-40.96-29.257143-52.662857l0 0-433.005714-339.382857 0 204.8L152.137143 315.977143z" p-id="18756" fill="#f8ef03"></path></svg>