<?xml version="1.0" encoding="UTF-8" ?>
<!DOCTYPE svg PUBLIC "-//W3C//DTD SVG 1.1//EN" "http://www.w3.org/Graphics/SVG/1.1/DTD/svg11.dtd">
<svg width="1120pt" height="1092pt" viewBox="0 0 1120 1092" version="1.1" xmlns="http://www.w3.org/2000/svg">
<g id="#696768ff">
<path fill="#696768" opacity="1.00" d=" M 0.00 0.00 L 1.01 0.00 C 0.76 185.99 1.00 371.99 0.88 557.98 C 0.94 735.65 0.89 913.33 0.90 1091.00 L 0.00 1091.00 L 0.00 0.00 Z" />
</g>
<g id="#474342ff">
<path fill="#474342" opacity="1.00" d=" M 1.01 0.00 L 1119.00 0.00 C 1119.01 341.32 1119.00 682.64 1119.00 1023.96 C 1119.07 1046.30 1118.87 1068.66 1119.10 1091.00 C 746.37 1091.01 373.64 1091.01 0.90 1091.00 C 0.89 913.33 0.94 735.65 0.88 557.98 C 1.00 371.99 0.76 185.99 1.01 0.00 M 2.65 2.59 C 2.63 364.57 2.73 726.55 2.60 1088.52 C 32.39 1088.94 62.20 1088.58 92.00 1088.70 C 433.58 1088.70 775.16 1088.72 1116.73 1088.69 C 1116.76 726.63 1116.79 364.57 1116.72 2.50 C 935.15 2.47 753.57 2.50 572.00 2.49 C 382.22 2.56 192.43 2.35 2.65 2.59 Z" />
</g>
<g id="#f1f1f1ff">
<path fill="#f1f1f1" opacity="1.00" d=" M 1119.00 0.00 L 1120.00 0.00 L 1120.00 1091.54 L 1119.10 1091.00 C 1118.87 1068.66 1119.07 1046.30 1119.00 1023.96 C 1119.00 682.64 1119.01 341.32 1119.00 0.00 Z" />
</g>
<g id="#ffffffff">
</g>
<g id="#003e87ff">
<path fill="#003e87" opacity="1.00" d=" M 528.58 61.81 C 612.39 56.37 697.59 72.99 772.96 110.15 C 835.23 140.66 890.76 184.76 934.70 238.39 C 970.69 282.26 998.95 332.47 1017.58 386.08 C 1048.90 475.63 1052.87 574.44 1029.29 666.30 C 1010.86 738.49 975.30 806.17 926.53 862.47 C 879.57 916.86 820.42 960.67 754.62 989.55 C 671.74 1026.18 578.46 1038.40 488.86 1025.21 C 432.50 1017.00 377.64 998.65 327.67 971.33 C 272.87 941.44 223.97 900.82 184.44 852.52 C 138.14 796.08 104.81 729.05 88.01 657.99 C 76.83 610.98 72.83 562.30 75.93 514.08 C 80.24 445.44 99.48 377.78 132.00 317.16 C 165.49 254.47 213.01 199.36 269.98 156.87 C 344.53 100.99 435.56 67.46 528.58 61.81 M 547.38 76.54 C 475.97 78.22 404.99 96.55 341.77 129.83 C 277.96 163.22 222.10 211.59 179.77 269.84 C 138.77 326.07 110.55 391.57 98.01 460.03 C 81.89 547.30 90.86 639.15 124.29 721.42 C 150.27 785.78 190.85 844.15 241.97 891.08 C 290.73 935.97 349.09 970.41 412.04 991.17 C 506.96 1022.67 611.99 1022.65 706.91 991.15 C 773.46 969.17 834.88 931.93 885.25 883.20 C 937.46 832.92 977.81 770.39 1001.93 702.02 C 1033.66 612.61 1037.17 513.53 1012.20 422.03 C 997.60 368.33 973.25 317.31 940.76 272.13 C 900.40 215.90 847.50 168.71 786.96 135.15 C 714.28 94.58 630.57 74.25 547.38 76.54 Z" />
<path fill="#003e87" opacity="1.00" d=" M 500.06 104.12 C 503.53 100.14 511.34 102.05 512.84 107.08 C 512.79 109.76 512.27 112.41 512.03 115.08 C 514.47 111.11 519.29 108.54 523.92 110.14 C 526.56 111.48 529.09 113.04 531.63 114.58 C 533.10 115.75 532.96 117.88 532.39 119.50 C 529.62 128.29 528.63 137.80 523.78 145.82 C 522.41 148.13 520.03 150.46 517.11 149.99 C 514.96 147.98 513.45 145.41 511.48 143.24 C 510.95 145.83 510.67 148.47 510.09 151.05 C 509.93 152.59 507.58 154.16 506.59 152.37 C 504.17 148.76 501.69 145.13 498.22 142.43 C 497.50 146.93 497.48 151.51 497.94 156.04 C 497.88 157.32 498.93 158.38 500.07 158.81 C 503.87 160.18 508.00 160.16 511.99 159.95 C 520.27 159.32 528.50 157.51 536.13 154.20 C 540.48 152.29 544.69 149.21 546.47 144.65 C 547.71 141.68 547.37 138.41 547.18 135.29 C 547.47 135.54 548.07 136.04 548.37 136.29 C 549.53 140.67 550.64 145.08 552.74 149.12 C 554.45 152.24 553.89 156.78 550.43 158.43 C 539.92 164.10 527.79 165.47 516.08 166.57 C 509.32 167.11 501.38 168.09 495.94 163.09 C 490.98 158.43 491.15 151.08 491.02 144.81 C 488.74 146.53 487.78 149.30 487.12 151.96 C 486.57 154.97 483.96 156.85 481.90 158.85 C 477.85 162.50 474.33 166.68 470.60 170.64 C 469.75 171.39 468.49 172.66 467.30 171.81 C 464.66 170.15 462.12 168.17 460.28 165.64 C 459.19 164.07 460.94 162.78 461.97 161.83 C 464.62 159.50 467.32 157.23 469.99 154.91 C 469.95 152.56 469.92 150.21 469.90 147.86 C 463.70 148.85 459.24 143.64 455.29 139.74 C 461.57 139.45 464.21 132.83 468.90 129.64 C 468.03 124.45 468.17 117.96 463.44 114.56 C 461.74 113.67 462.91 111.88 463.98 111.09 C 469.21 110.22 475.08 111.34 479.10 114.95 C 481.38 116.96 481.79 120.08 481.84 122.94 C 483.79 123.36 486.60 123.17 487.55 125.37 C 488.14 127.00 488.59 129.04 487.72 130.64 C 486.10 131.91 484.31 132.94 482.58 134.06 C 482.54 138.40 482.52 142.75 482.48 147.09 C 485.70 143.93 488.54 140.42 491.60 137.11 C 491.44 134.54 490.38 132.24 489.28 129.97 C 488.97 127.13 491.70 124.90 494.04 123.86 C 496.42 123.03 497.68 125.71 499.13 127.04 C 498.83 128.01 498.56 128.98 498.29 129.95 C 499.99 128.06 502.04 126.40 503.27 124.13 C 503.44 119.76 503.53 115.37 503.03 111.02 C 502.51 111.54 501.47 112.60 500.96 113.13 C 499.08 110.51 499.42 107.10 500.06 104.12 M 519.53 116.05 C 516.83 119.22 514.21 122.50 512.06 126.07 C 511.60 130.76 512.03 135.54 511.57 140.25 C 512.70 140.61 514.76 142.60 515.36 140.59 C 517.55 134.67 518.59 128.40 519.72 122.21 C 520.01 120.17 520.69 117.95 519.53 116.05 M 498.91 140.57 C 500.60 141.47 502.29 142.37 504.00 143.25 C 504.15 140.31 503.45 137.18 504.59 134.39 C 501.93 135.35 500.57 138.40 498.91 140.57 Z" />
<path fill="#003e87" opacity="1.00" d=" M 538.61 192.84 C 585.79 190.01 633.55 196.67 678.09 212.54 C 744.53 236.04 803.41 280.11 844.96 337.00 C 884.07 390.22 907.73 454.63 912.17 520.53 C 916.52 581.16 905.02 642.91 878.71 697.73 C 858.48 740.12 829.68 778.38 794.58 809.58 C 757.50 842.67 713.34 867.80 665.93 882.70 C 604.77 902.01 538.34 904.15 476.04 888.99 C 412.44 873.69 353.49 840.01 307.69 793.34 C 256.90 741.85 222.44 674.46 210.95 603.02 C 202.81 553.20 205.35 501.63 218.58 452.91 C 233.19 398.76 261.10 348.32 299.00 307.00 C 332.96 269.90 374.88 240.09 421.17 220.39 C 458.33 204.52 498.27 195.17 538.61 192.84 M 487.05 209.10 C 433.41 220.54 382.58 245.10 340.41 280.18 C 374.92 279.52 409.43 278.76 443.94 279.07 C 448.00 279.00 452.38 279.96 456.14 277.92 C 515.79 251.32 585.82 249.23 647.02 272.00 C 649.88 273.35 653.07 272.49 656.08 272.36 C 670.37 271.31 684.67 270.63 698.98 270.11 C 721.00 269.51 743.07 268.55 765.08 269.74 C 726.80 241.19 682.58 220.61 635.99 210.08 C 587.20 198.96 535.98 198.66 487.05 209.10 M 473.86 281.53 C 479.98 284.63 485.32 289.00 490.14 293.85 C 492.07 293.32 494.00 292.66 496.03 292.67 C 504.44 292.60 512.85 292.78 521.27 292.59 C 525.33 282.64 531.25 272.60 541.05 267.41 C 518.16 269.19 495.52 273.90 473.86 281.53 M 575.93 267.27 C 586.31 270.64 596.09 275.74 604.91 282.17 C 605.55 282.80 606.76 283.17 606.80 284.23 C 600.48 286.25 594.25 288.78 588.85 292.70 C 596.75 292.60 604.66 292.79 612.57 292.58 C 617.02 286.60 622.13 280.84 628.79 277.27 C 611.64 271.80 593.74 269.33 575.93 267.27 M 770.06 273.56 C 765.69 283.12 759.87 292.02 752.86 299.86 C 748.47 304.58 743.48 309.28 737.09 310.99 C 732.02 312.36 726.95 313.72 721.93 315.23 C 725.40 318.03 728.55 321.24 732.29 323.71 C 734.96 325.34 736.35 328.27 738.59 330.37 C 743.05 334.73 747.35 339.27 751.43 344.00 C 769.97 341.66 788.78 339.71 807.45 341.72 C 822.82 344.23 839.01 349.00 849.74 360.99 C 828.48 327.55 801.37 297.85 770.06 273.56 M 244.22 407.13 C 207.55 489.76 205.62 586.97 238.82 671.04 C 264.03 735.76 309.52 792.22 367.06 831.05 C 362.11 815.06 357.09 799.03 350.18 783.75 C 344.63 770.86 334.47 760.22 322.38 753.25 C 336.21 745.74 348.51 734.25 354.43 719.42 C 358.93 708.36 361.97 696.76 364.54 685.13 C 334.91 650.50 314.50 608.03 306.35 563.17 C 297.96 517.68 301.77 469.97 317.59 426.49 C 328.75 395.67 345.81 366.98 367.64 342.52 C 369.17 341.15 369.10 338.90 370.28 337.33 C 371.97 336.38 373.96 335.88 375.25 334.33 C 378.95 330.42 382.86 326.72 386.81 323.07 C 376.92 322.94 365.89 321.79 358.37 314.68 C 349.50 305.54 342.11 295.04 335.64 284.09 C 296.50 317.60 264.93 359.94 244.22 407.13 M 498.10 303.08 C 504.06 310.52 508.42 319.03 512.75 327.47 C 513.86 319.26 515.28 311.07 517.64 303.12 C 511.13 303.05 504.62 303.11 498.10 303.08 M 583.65 303.09 C 585.35 312.04 589.70 320.24 594.77 327.71 C 597.89 319.25 601.44 310.92 605.92 303.08 C 598.49 303.11 591.07 303.08 583.65 303.09 M 402.30 322.22 C 397.01 326.05 392.23 330.56 387.50 335.07 C 398.20 334.67 408.88 334.09 419.59 333.93 C 417.12 329.42 414.64 324.93 412.16 320.43 C 408.89 321.11 405.55 321.45 402.30 322.22 M 721.35 355.35 C 715.92 361.37 708.25 365.63 700.03 365.76 C 690.61 365.78 681.18 365.46 671.76 365.80 C 671.52 367.35 671.28 368.91 671.05 370.47 C 679.01 370.07 687.06 369.77 694.97 370.94 C 698.03 371.51 701.43 372.03 703.76 374.29 C 705.52 376.35 704.10 379.13 703.48 381.37 C 699.85 390.66 694.00 399.00 687.06 406.12 C 682.14 410.93 676.15 415.53 669.02 415.98 C 661.36 416.56 653.63 416.88 645.98 415.98 C 644.62 419.56 643.27 423.15 641.95 426.75 C 649.64 426.29 657.36 425.75 665.07 426.23 C 667.72 426.53 670.85 426.36 672.77 428.59 C 680.25 428.77 687.73 428.62 695.22 428.68 C 695.28 431.33 695.22 433.99 695.12 436.65 C 686.10 436.63 677.08 436.53 668.06 436.70 C 665.90 439.88 663.59 442.94 661.11 445.87 C 701.38 445.84 741.66 445.86 781.93 445.86 C 782.96 449.00 783.92 452.16 784.81 455.36 C 740.89 455.40 696.96 455.30 653.04 455.41 C 649.66 456.44 647.35 460.08 643.57 460.30 C 636.70 460.94 629.82 461.41 622.95 462.03 C 621.01 466.94 619.20 471.90 617.17 476.78 C 625.53 477.12 633.90 476.81 642.26 476.94 C 641.23 479.40 640.16 481.83 639.03 484.25 C 650.59 484.22 662.15 484.28 673.70 484.22 C 676.70 487.75 679.65 491.31 682.57 494.90 C 666.05 494.95 649.54 494.86 633.02 494.95 C 630.80 497.96 628.40 500.98 625.00 502.72 C 628.64 503.22 632.31 502.96 635.98 503.01 C 656.87 503.05 677.77 502.93 698.67 503.07 C 702.05 506.72 705.52 510.30 709.09 513.78 C 704.08 514.40 699.02 513.92 693.99 514.07 C 663.15 514.07 632.30 514.08 601.45 514.06 C 601.53 516.26 601.71 518.46 602.01 520.64 C 637.75 520.56 673.49 520.62 709.23 520.62 C 709.22 524.58 709.21 528.55 709.29 532.53 C 674.72 532.78 640.13 532.60 605.55 532.62 C 605.96 535.06 606.05 537.54 605.89 540.02 C 637.85 540.00 669.81 540.08 701.77 539.98 C 719.83 525.66 737.39 510.70 754.23 494.97 C 735.01 494.84 715.79 494.95 696.57 494.91 C 696.51 491.34 696.52 487.77 696.62 484.21 C 719.53 484.46 742.47 483.89 765.37 484.50 C 768.36 481.78 771.19 478.90 774.12 476.12 C 743.98 476.12 713.83 476.13 683.69 476.12 C 683.67 472.42 683.67 468.72 683.69 465.03 C 717.51 465.02 751.32 465.03 785.14 465.02 C 789.57 460.44 793.92 455.76 798.09 450.95 C 786.65 408.71 763.84 369.68 732.75 338.91 C 729.31 344.62 725.94 350.47 721.35 355.35 M 317.23 454.24 C 305.84 498.56 306.84 546.01 320.16 589.79 C 329.74 621.24 345.54 650.82 366.59 676.09 C 367.27 672.34 367.95 668.58 368.57 664.82 C 369.92 670.32 369.75 676.09 371.31 681.53 C 374.20 685.28 377.61 688.60 380.88 692.02 C 386.24 690.71 391.63 689.51 397.01 688.30 C 392.21 683.46 386.99 678.97 382.83 673.55 C 393.26 673.52 403.69 673.55 414.12 673.53 C 411.41 675.46 408.37 676.81 405.34 678.14 C 412.21 682.00 419.57 686.43 423.05 693.84 C 426.20 701.15 429.51 708.53 430.55 716.50 C 425.04 718.02 419.37 718.85 413.81 720.19 C 431.05 732.72 450.05 742.80 469.95 750.42 C 510.77 766.02 555.75 770.36 598.83 763.22 C 630.07 758.08 660.27 746.78 687.27 730.26 C 733.79 701.92 770.52 657.91 790.04 607.05 C 803.93 571.31 809.12 532.37 805.86 494.21 C 799.62 501.49 793.38 508.79 786.80 515.77 C 763.92 539.46 737.66 559.57 710.85 578.57 L 712.33 579.31 C 712.56 582.25 712.36 585.22 712.40 588.19 C 707.38 588.32 702.33 587.97 697.32 588.33 C 692.35 591.22 687.80 594.79 682.96 597.91 C 695.92 597.90 708.87 597.84 721.83 597.94 C 725.04 601.65 728.37 605.28 731.60 608.99 C 710.02 609.03 688.45 608.89 666.88 609.06 C 662.38 611.04 658.49 614.40 654.28 616.99 C 680.81 617.10 707.33 616.96 733.86 617.07 C 733.87 620.38 733.88 623.69 733.88 627.01 C 702.57 627.06 671.26 626.97 639.95 627.05 C 636.22 627.97 633.35 631.06 630.01 632.91 C 665.08 632.92 700.14 632.90 735.20 632.91 C 735.21 636.78 735.18 640.65 735.27 644.52 C 694.21 644.95 653.13 644.44 612.07 644.77 C 606.39 646.64 601.46 650.44 595.94 652.81 C 642.36 652.71 688.78 652.79 735.20 652.78 C 735.22 656.92 735.21 661.06 735.20 665.21 C 682.03 665.22 628.87 665.22 575.70 665.20 C 575.71 664.51 575.71 663.13 575.72 662.44 C 561.70 668.82 547.51 674.83 533.14 680.38 C 532.97 687.91 533.11 695.44 533.05 702.98 C 513.71 702.97 494.36 702.99 475.02 702.97 C 473.29 702.90 471.60 703.25 470.01 703.88 C 461.63 706.90 453.17 709.67 444.76 712.57 C 474.48 712.87 504.24 712.39 533.98 712.40 C 585.37 712.25 636.78 711.90 688.18 711.93 C 683.18 715.44 677.88 718.48 672.58 721.50 C 670.53 722.61 668.46 724.07 666.00 723.76 C 593.36 723.70 520.71 723.78 448.07 723.72 C 444.39 723.10 441.41 720.45 438.63 718.13 C 439.89 711.62 441.46 705.14 443.77 698.92 C 447.62 689.99 456.03 684.16 463.98 679.13 C 460.79 677.50 457.78 675.54 455.07 673.20 C 473.31 664.62 492.19 657.52 510.76 649.71 C 526.67 642.78 542.29 635.17 557.64 627.09 C 555.78 627.03 553.94 627.01 552.09 627.00 C 550.04 623.69 547.98 620.39 546.00 617.05 C 556.32 616.88 566.66 617.29 576.96 616.86 C 581.83 614.57 586.47 611.78 591.23 609.27 C 586.31 608.64 581.34 609.19 576.40 608.91 C 575.12 605.24 573.69 601.62 572.35 597.97 C 585.47 597.64 598.64 598.22 611.75 597.69 C 617.51 594.81 622.96 591.33 628.57 588.17 C 611.71 588.21 594.86 588.20 578.00 588.19 C 577.98 586.27 577.97 584.35 577.96 582.45 C 571.18 592.17 564.49 601.95 557.83 611.74 C 556.67 610.31 555.57 608.86 554.58 607.32 C 519.64 607.08 484.70 607.35 449.76 607.18 C 452.08 604.23 454.53 601.39 456.97 598.54 C 487.35 598.59 517.73 598.50 548.10 598.58 C 541.46 589.25 534.97 579.80 528.27 570.52 C 525.84 570.15 523.38 570.37 520.94 570.34 C 489.05 570.34 457.16 570.35 425.26 570.34 C 426.89 566.87 428.58 563.43 430.22 559.97 C 460.55 559.92 490.89 559.94 521.23 559.97 C 519.39 557.03 517.49 554.14 515.69 551.19 C 486.42 551.04 457.16 551.17 427.89 551.12 C 425.51 547.42 423.09 543.76 420.75 540.04 C 450.32 539.92 479.91 540.21 509.48 539.89 C 509.50 537.47 509.68 535.05 509.94 532.65 C 475.76 532.62 441.58 532.70 407.41 532.60 C 409.18 528.59 410.87 524.54 412.74 520.57 C 445.68 520.56 478.63 520.75 511.57 520.48 C 511.67 518.82 511.84 517.17 511.96 515.52 C 508.28 515.19 504.71 514.13 501.01 514.06 C 478.48 514.07 455.95 514.08 433.41 514.05 C 435.96 510.35 438.54 506.67 441.13 503.00 C 455.55 503.02 469.97 503.02 484.40 502.99 C 482.60 500.27 480.73 497.62 478.84 494.96 C 468.35 494.82 457.86 494.99 447.36 494.87 C 447.38 491.33 447.38 487.79 447.37 484.26 C 455.38 484.26 463.39 484.18 471.39 484.30 C 471.25 482.82 469.07 480.40 470.98 479.37 C 478.19 477.51 485.74 478.00 493.08 477.10 C 491.68 472.48 489.31 468.12 487.23 463.74 C 476.77 465.52 464.42 465.42 456.12 457.87 C 449.37 450.64 443.28 442.72 438.30 434.17 C 448.89 432.70 459.44 430.99 470.03 429.50 C 467.80 425.86 466.10 421.66 463.36 418.47 C 455.66 420.12 447.75 421.43 439.86 420.54 C 434.46 419.97 428.79 418.15 425.29 413.76 C 419.47 406.78 413.80 399.61 409.18 391.77 C 407.64 389.02 406.05 386.18 405.71 383.00 C 405.53 381.53 406.54 380.34 408.03 380.39 C 418.54 380.12 429.06 379.83 439.58 379.32 C 437.98 376.24 436.97 372.83 434.98 369.99 C 423.68 370.59 412.28 371.71 401.01 370.05 C 397.92 369.62 394.78 368.76 392.32 366.74 C 385.56 361.51 379.30 355.58 373.92 348.92 C 346.83 378.71 327.21 415.24 317.23 454.24 M 759.02 353.05 C 780.04 379.37 795.93 409.82 805.29 442.19 C 817.55 426.53 828.43 408.33 829.54 387.98 C 829.72 379.66 829.19 370.32 823.31 363.82 C 816.85 356.68 807.08 353.90 797.87 352.48 C 784.99 350.67 771.87 351.30 759.02 353.05 M 857.16 373.37 C 860.90 382.74 862.72 393.07 861.15 403.12 C 859.17 416.21 853.33 428.34 846.73 439.68 C 837.45 455.32 826.21 469.69 814.71 483.73 C 813.71 484.61 814.11 485.99 814.18 487.13 C 820.85 546.36 806.45 607.75 773.76 657.63 C 740.42 709.18 688.16 748.29 629.02 765.00 C 588.47 776.62 545.04 777.88 503.86 768.82 C 467.67 760.86 433.29 744.83 403.89 722.27 C 399.61 723.05 395.37 724.02 391.09 724.83 C 389.07 719.50 386.93 714.21 384.90 708.89 C 383.17 702.83 377.27 699.59 373.42 695.00 C 376.01 705.15 378.09 715.90 384.40 724.54 C 392.72 735.70 404.17 744.07 415.94 751.28 C 403.99 757.10 393.48 766.16 386.65 777.62 C 383.33 783.09 381.32 789.20 379.31 795.24 C 375.27 807.55 372.32 820.18 369.94 832.90 C 400.18 852.91 433.62 868.07 468.60 877.58 C 534.94 895.72 606.74 893.42 671.73 870.89 C 722.23 853.48 768.51 824.02 805.73 785.72 C 843.12 747.47 871.41 700.38 887.47 649.36 C 906.69 588.72 908.53 522.73 892.95 461.07 C 885.30 430.32 872.97 400.88 857.42 373.31 L 857.16 373.37 M 600.05 551.08 C 597.78 553.95 595.69 556.95 593.61 559.96 C 620.09 559.93 646.58 559.96 673.06 559.93 C 674.63 560.06 675.85 558.91 677.10 558.14 C 680.38 555.79 683.70 553.49 686.97 551.12 C 658.00 551.10 629.02 551.18 600.05 551.08 M 586.29 570.39 C 584.30 573.22 582.34 576.06 580.37 578.91 C 601.56 578.86 622.76 579.03 643.95 578.82 C 649.00 576.45 653.54 573.09 658.37 570.29 C 634.34 570.45 610.32 570.24 586.29 570.39 Z" />
<path fill="#003e87" opacity="1.00" d=" M 264.36 200.47 C 268.11 199.24 273.28 198.35 276.07 201.91 C 278.02 204.80 279.34 208.06 281.00 211.11 C 287.36 210.57 289.99 203.85 295.51 201.69 C 298.22 200.52 301.36 201.67 303.52 203.46 C 305.73 206.09 302.69 208.99 301.71 211.49 C 296.54 222.41 293.69 235.48 297.70 247.22 C 298.05 248.18 298.35 249.93 299.72 249.69 C 302.84 246.75 305.60 243.48 308.46 240.30 C 312.21 237.04 317.03 235.34 321.60 233.54 C 327.72 231.40 334.98 229.76 340.97 233.11 C 343.48 234.69 346.09 236.98 346.54 240.06 C 345.39 243.58 340.94 243.29 337.99 244.03 C 332.36 245.36 326.56 244.77 320.87 245.44 C 316.92 245.85 312.88 244.91 309.00 245.94 C 306.20 246.56 303.73 248.08 301.27 249.46 C 300.45 250.69 299.91 252.06 299.85 253.56 C 302.94 257.90 304.67 263.64 302.74 268.83 C 300.48 275.19 295.29 279.99 290.00 283.93 C 288.61 284.74 286.59 286.31 285.11 284.86 C 283.09 281.32 283.55 276.63 286.53 273.77 C 286.71 275.30 286.91 276.82 287.11 278.35 C 290.05 276.60 291.38 273.17 292.12 269.99 C 293.54 262.73 290.71 255.51 287.42 249.16 C 284.36 251.78 281.04 254.47 276.94 255.17 C 273.80 255.89 270.76 254.48 267.78 253.73 C 267.38 252.04 268.01 250.44 269.29 249.33 C 274.25 244.43 278.46 238.04 279.13 231.03 C 275.80 224.11 271.94 217.43 267.89 210.91 C 267.04 209.36 265.45 208.51 263.97 207.67 C 264.15 208.70 264.49 210.76 264.67 211.79 C 262.48 210.42 259.11 209.77 258.31 206.96 C 257.74 203.38 261.67 201.64 264.36 200.47 M 282.19 213.79 C 282.98 215.24 283.78 216.69 284.57 218.15 C 285.90 216.83 286.37 214.97 286.89 213.23 C 285.31 213.35 283.74 213.51 282.19 213.79 Z" />
<path fill="#003e87" opacity="1.00" d=" M 717.13 399.04 C 718.01 395.59 718.92 392.14 719.83 388.70 C 731.26 388.67 742.69 388.71 754.12 388.67 C 756.41 392.04 758.55 395.50 760.68 398.98 C 746.16 399.21 731.64 399.08 717.13 399.04 Z" />
<path fill="#003e87" opacity="1.00" d=" M 968.79 519.25 C 977.18 514.25 985.61 509.32 994.03 504.36 C 992.71 514.46 991.32 524.56 989.97 534.66 C 997.77 540.68 1005.70 546.54 1013.35 552.75 C 1003.73 553.94 994.11 555.12 984.50 556.37 C 980.91 565.08 977.12 573.72 973.52 582.43 C 973.02 583.66 972.38 584.84 971.58 585.90 C 967.56 576.83 963.01 568.01 958.78 559.04 C 948.93 558.76 939.09 558.52 929.25 558.14 C 929.37 557.82 929.61 557.17 929.73 556.84 C 936.84 549.45 943.94 542.04 951.08 534.67 C 948.10 525.76 945.04 516.87 942.05 507.96 C 950.97 511.71 959.85 515.55 968.79 519.25 Z" />
<path fill="#003e87" opacity="1.00" d=" M 145.23 519.26 C 153.72 514.35 162.12 509.31 170.59 504.37 C 169.31 514.34 167.95 524.30 166.59 534.26 L 166.82 534.85 C 174.51 540.83 182.37 546.60 189.92 552.76 C 180.33 553.87 170.77 555.22 161.17 556.31 C 156.92 566.22 152.71 576.16 148.52 586.10 C 143.92 577.14 139.81 567.93 135.22 558.97 C 125.23 558.84 115.23 558.44 105.24 558.11 C 112.53 550.03 120.42 542.51 127.68 534.41 C 124.49 525.75 121.79 516.92 118.65 508.25 C 127.68 511.45 136.36 515.61 145.23 519.26 Z" />
<path fill="#003e87" opacity="1.00" d=" M 332.28 541.05 C 343.25 540.87 354.21 541.06 365.18 540.94 C 367.94 544.22 370.64 547.56 373.28 550.94 C 357.78 550.98 342.28 550.98 326.78 550.94 C 328.58 547.62 330.51 544.38 332.28 541.05 Z" />
<path fill="#003e87" opacity="1.00" d=" M 395.02 558.73 C 396.62 558.73 398.22 558.74 399.83 558.77 C 404.54 562.68 409.54 566.25 414.13 570.31 C 407.76 570.38 401.39 570.33 395.02 570.33 C 395.01 566.46 395.01 562.59 395.02 558.73 Z" />
<path fill="#003e87" opacity="1.00" d=" M 326.10 559.95 C 346.61 560.03 367.13 559.75 387.63 560.11 C 387.57 563.52 387.55 566.94 387.50 570.37 C 367.74 570.29 347.97 570.40 328.21 570.31 C 327.50 566.86 326.76 563.41 326.10 559.95 Z" />
<path fill="#003e87" opacity="1.00" d=" M 399.78 578.93 C 415.20 578.88 430.63 578.94 446.05 578.91 C 444.37 582.00 442.68 585.10 440.98 588.19 C 429.75 588.17 418.52 588.27 407.29 588.14 C 404.83 585.03 402.25 582.02 399.78 578.93 Z" />
<path fill="#003e87" opacity="1.00" d=" M 458.21 578.96 C 476.48 578.87 494.76 578.92 513.04 578.92 C 514.44 578.70 515.39 579.84 516.37 580.64 C 519.89 583.86 523.56 586.93 527.06 590.19 C 504.11 590.27 481.17 590.22 458.22 590.22 C 458.22 586.46 458.22 582.71 458.21 578.96 Z" />
<path fill="#003e87" opacity="1.00" d=" M 330.66 579.59 C 349.67 579.61 368.69 579.46 387.70 579.66 C 389.51 582.84 391.49 585.92 393.39 589.05 C 373.38 589.01 353.37 589.23 333.36 588.94 C 332.45 585.82 331.53 582.71 330.66 579.59 Z" />
<path fill="#003e87" opacity="1.00" d=" M 416.79 597.90 C 419.58 597.90 422.38 597.89 425.17 597.85 C 427.38 601.50 429.41 605.25 431.48 608.99 C 426.58 608.98 421.68 608.99 416.79 608.98 C 416.77 605.28 416.77 601.59 416.79 597.90 Z" />
<path fill="#003e87" opacity="1.00" d=" M 336.81 598.58 C 360.95 598.52 385.09 598.57 409.23 598.56 C 409.24 602.03 409.24 605.51 409.23 608.99 C 386.47 608.99 363.72 608.99 340.97 608.98 C 339.51 605.54 338.10 602.08 336.81 598.58 Z" />
<path fill="#003e87" opacity="1.00" d=" M 524.18 616.00 C 529.24 615.97 534.30 615.97 539.36 615.99 C 539.37 619.66 539.36 623.33 539.36 627.01 C 534.30 627.02 529.24 627.03 524.18 627.00 C 524.18 623.33 524.18 619.66 524.18 616.00 Z" />
<path fill="#003e87" opacity="1.00" d=" M 275.31 669.27 C 280.30 657.86 283.60 645.81 286.61 633.75 C 288.56 644.96 290.64 656.55 296.64 666.42 C 301.87 674.01 308.88 680.27 316.48 685.43 C 308.71 690.60 302.42 697.89 298.43 706.34 C 293.29 717.39 290.27 729.34 288.58 741.39 C 285.66 730.09 282.76 718.69 277.86 708.05 C 273.83 698.64 266.13 691.35 257.92 685.52 C 266.16 683.70 271.91 676.59 275.31 669.27 Z" />
<path fill="#003e87" opacity="1.00" d=" M 354.68 635.86 C 396.56 635.84 438.44 635.82 480.32 635.87 C 478.17 638.84 475.91 641.73 473.70 644.66 C 461.04 644.71 448.38 644.65 435.73 644.69 C 437.37 652.58 440.29 660.26 444.83 666.95 C 448.26 671.99 453.05 675.86 457.90 679.47 C 450.99 684.16 443.91 689.80 441.03 697.95 C 438.41 705.13 437.00 712.66 435.61 720.15 C 432.26 710.64 429.65 700.84 425.46 691.65 C 422.72 685.72 417.06 682.05 411.88 678.47 C 418.05 675.22 424.49 671.32 427.79 664.92 C 430.74 658.47 432.41 651.54 434.11 644.68 C 409.49 644.69 384.86 644.64 360.24 644.71 C 358.27 641.83 356.45 638.86 354.68 635.86 Z" />
<path fill="#003e87" opacity="1.00" d=" M 368.43 656.51 C 388.25 656.23 408.08 656.44 427.90 656.40 C 427.00 658.96 426.00 661.49 424.87 663.96 C 408.00 664.19 391.13 664.05 374.26 664.03 C 372.33 661.51 370.34 659.03 368.43 656.51 Z" />
<path fill="#003e87" opacity="1.00" d=" M 569.89 673.55 C 624.25 673.54 678.60 673.52 732.95 673.56 C 729.13 677.90 725.03 681.98 720.88 686.00 C 670.55 686.00 620.22 686.00 569.89 686.00 C 569.88 681.84 569.88 677.69 569.89 673.55 Z" />
<path fill="#003e87" opacity="1.00" d=" M 562.29 692.30 C 612.84 692.31 663.39 692.30 713.94 692.31 C 709.75 696.03 705.37 699.54 700.94 702.98 C 653.22 702.98 605.49 702.96 557.77 702.99 C 559.22 699.40 560.76 695.85 562.29 692.30 Z" />
<path fill="#003e87" opacity="1.00" d=" M 316.90 695.24 C 330.54 694.74 344.20 694.51 357.84 694.04 C 353.03 705.77 347.40 717.14 342.52 728.84 C 327.74 725.79 313.11 722.01 298.35 718.84 C 299.88 712.36 302.51 705.99 306.79 700.83 C 309.29 697.80 312.86 695.37 316.90 695.24 Z" />
<path fill="#003e87" opacity="1.00" d=" M 465.08 732.23 C 518.04 731.76 571.03 732.16 624.00 732.03 C 632.76 732.24 641.58 731.57 650.32 732.39 C 642.06 735.79 633.66 738.86 625.10 741.40 C 623.77 741.80 622.38 741.99 621.01 742.01 C 580.66 742.00 540.32 742.01 499.97 742.01 C 496.58 741.96 493.08 742.36 489.81 741.22 C 481.43 738.65 473.11 735.78 465.08 732.23 Z" />
<path fill="#003e87" opacity="1.00" d=" M 517.91 798.97 C 518.99 797.47 521.34 796.79 522.67 798.42 C 524.97 800.64 524.24 804.10 523.92 806.93 C 521.67 822.70 519.15 838.43 516.61 854.16 C 515.77 857.48 518.09 860.64 517.18 863.99 C 513.01 864.19 508.95 863.13 504.85 862.62 C 502.00 862.16 498.84 861.36 497.08 858.88 C 496.37 856.07 499.88 855.15 501.90 854.61 C 503.83 841.22 505.49 827.80 507.36 814.41 C 505.33 813.94 502.37 814.87 501.15 812.77 C 500.26 810.79 502.35 809.67 503.68 808.75 C 508.54 805.66 514.06 803.40 517.91 798.97 Z" />
<path fill="#003e87" opacity="1.00" d=" M 607.87 799.60 C 610.69 798.50 613.95 797.77 616.91 798.81 C 618.75 799.23 619.83 801.89 618.12 803.15 C 614.74 805.35 610.02 805.08 607.18 808.27 C 604.84 811.23 604.65 815.20 604.16 818.80 C 606.65 816.99 609.73 815.17 612.91 816.42 C 620.13 818.44 622.64 826.46 624.08 832.98 C 625.63 841.67 626.20 851.24 622.30 859.41 C 618.60 866.56 608.63 867.96 602.12 864.00 C 598.25 861.99 596.36 857.81 595.01 853.89 C 592.16 845.57 590.58 836.81 590.29 828.03 C 590.27 823.04 590.48 817.64 593.46 813.42 C 597.20 807.90 601.60 802.34 607.87 799.60 M 605.08 825.99 C 605.03 831.33 605.92 836.63 606.17 841.97 C 606.75 847.61 606.80 853.36 608.17 858.89 C 608.92 859.03 610.42 859.31 611.18 859.45 C 611.81 854.33 611.02 849.20 610.73 844.10 C 610.09 837.78 610.10 831.37 608.86 825.15 C 608.47 823.03 605.02 824.28 605.08 825.99 Z" />
<path fill="#003e87" opacity="1.00" d=" M 531.15 805.12 C 535.66 798.28 545.96 798.16 551.93 803.10 C 555.20 805.41 556.63 809.35 557.36 813.14 C 559.11 822.32 559.43 831.80 558.17 841.06 C 557.41 845.89 556.30 851.07 552.74 854.67 C 548.53 859.13 543.85 863.53 537.94 865.56 C 534.43 866.62 530.24 867.11 526.98 865.08 C 525.17 864.06 525.46 861.17 527.44 860.59 C 531.28 859.41 535.98 860.07 539.05 857.02 C 541.32 854.32 542.29 850.82 542.99 847.44 C 540.22 849.24 536.59 850.24 533.59 848.33 C 527.30 845.09 526.09 837.29 525.65 830.94 C 525.35 822.13 526.28 812.70 531.15 805.12 M 542.35 807.15 C 540.93 811.28 541.17 815.74 540.67 820.04 C 540.22 826.98 539.20 833.94 539.47 840.91 C 540.42 843.13 543.99 841.40 543.52 839.18 C 544.27 828.46 545.71 817.72 545.37 806.96 C 544.35 806.86 543.04 805.87 542.35 807.15 Z" />
</g>
<g id="#003e88ff">
<path fill="#003e88" opacity="1.00" d=" M 624.91 98.99 C 629.64 96.20 634.72 99.60 637.89 103.12 C 640.18 105.53 639.51 109.13 639.31 112.13 C 641.97 112.38 645.75 112.09 647.07 115.05 C 648.07 116.40 647.09 118.19 645.62 118.62 C 642.22 120.37 638.58 121.61 634.97 122.85 C 633.39 127.58 632.21 132.43 631.22 137.31 C 634.00 135.06 636.41 132.37 639.24 130.17 C 643.25 127.91 647.08 132.43 647.59 136.14 C 648.18 138.50 646.28 140.27 645.05 142.01 C 642.44 145.34 640.48 149.10 638.67 152.90 C 642.81 156.53 650.25 154.95 652.43 160.84 C 653.57 163.61 654.43 168.55 650.90 169.85 C 646.70 168.23 644.25 163.71 639.89 162.17 C 637.60 160.67 634.07 161.94 632.36 159.70 C 631.27 156.53 630.35 152.53 632.48 149.60 C 635.46 144.85 638.41 139.99 640.30 134.69 C 640.22 134.30 640.07 133.53 640.00 133.14 C 636.70 134.97 633.52 137.14 630.99 139.96 C 627.88 152.02 628.93 164.75 625.82 176.80 C 625.06 178.43 624.78 182.11 622.17 180.94 C 618.95 173.85 613.50 168.05 610.70 160.76 C 608.49 162.66 606.51 164.93 603.87 166.24 C 602.29 167.42 601.60 165.07 601.36 163.97 C 600.81 161.67 600.34 159.36 600.17 157.01 C 600.93 155.21 603.43 155.08 604.22 153.25 C 606.31 149.84 608.62 146.58 611.03 143.38 C 608.53 142.18 605.69 140.84 604.57 138.13 C 605.69 134.89 610.10 134.83 612.97 134.57 C 615.64 136.04 620.42 138.10 619.20 141.89 C 616.95 145.22 613.93 148.02 612.25 151.74 C 616.35 149.07 620.50 146.37 624.15 143.11 C 625.53 137.41 626.02 131.52 626.80 125.72 C 624.88 126.45 623.12 127.65 621.09 128.01 C 618.25 126.61 616.06 124.01 612.85 123.27 C 607.40 128.79 604.21 135.89 600.77 142.70 C 597.89 147.75 593.09 151.20 589.37 155.55 C 587.35 157.86 584.55 159.96 581.34 159.74 C 578.29 158.40 579.15 154.57 579.06 151.92 C 582.85 151.42 585.70 148.92 587.82 145.90 C 584.84 142.32 581.56 139.03 578.42 135.61 C 577.15 134.38 578.21 132.39 579.43 131.56 C 583.68 128.63 588.50 126.48 593.57 125.44 C 593.92 123.51 594.29 121.58 594.72 119.67 C 590.83 117.80 587.67 114.78 584.92 111.49 C 585.00 111.22 585.15 110.66 585.23 110.38 C 588.61 109.72 592.06 109.07 594.99 107.12 C 597.08 105.61 599.97 105.28 602.18 106.78 C 604.45 108.55 606.59 110.61 608.18 113.03 C 608.97 115.03 607.21 116.70 606.40 118.36 C 602.93 123.85 601.65 130.33 600.81 136.68 C 604.66 131.30 608.80 126.13 613.02 121.03 C 614.53 120.07 616.45 120.17 618.16 119.76 C 622.36 119.15 626.06 116.92 629.68 114.85 C 629.58 110.79 633.52 106.27 630.18 102.76 C 629.22 101.36 627.39 101.50 625.92 101.33 C 625.67 100.74 625.16 99.57 624.91 98.99 M 582.90 137.44 C 584.22 139.96 589.61 142.93 590.45 138.78 C 589.11 136.13 585.28 136.53 582.90 137.44 M 611.55 159.84 C 613.66 162.61 616.01 165.28 618.99 167.16 C 619.70 167.95 621.19 167.86 621.27 166.59 C 621.72 161.00 622.28 155.40 623.44 149.90 C 619.00 152.60 615.17 156.14 611.55 159.84 Z" />
<path fill="#003e88" opacity="1.00" d=" M 692.50 139.19 C 695.52 140.49 694.53 145.47 698.07 146.42 C 704.40 145.82 710.79 145.39 717.15 146.14 C 718.87 143.54 721.03 141.02 724.14 140.09 C 726.04 139.83 727.58 141.41 728.61 142.83 C 728.47 144.18 727.65 145.90 729.17 146.78 C 731.24 148.27 732.38 150.53 732.07 153.12 C 728.45 154.04 723.98 153.21 721.33 156.36 C 719.51 159.28 718.46 162.60 717.05 165.72 C 721.40 164.89 725.54 162.89 728.61 159.64 C 732.06 156.32 733.89 151.81 736.73 148.03 C 735.10 152.46 732.98 156.67 731.00 160.94 C 729.82 163.02 729.06 165.66 726.74 166.79 C 721.99 169.53 716.56 170.66 711.51 172.68 C 709.89 173.23 708.85 174.61 708.09 176.05 C 704.23 182.00 705.74 189.76 701.66 195.66 C 700.69 197.14 698.79 195.43 699.07 194.11 C 698.60 191.43 698.30 188.71 698.48 185.99 C 698.71 182.65 702.24 180.33 701.85 176.87 C 698.09 175.50 693.76 180.19 690.10 176.87 C 690.75 172.95 691.71 169.04 693.45 165.45 C 693.99 163.77 695.89 164.62 697.12 164.76 C 703.23 166.37 710.06 162.48 712.32 156.70 C 707.40 155.59 703.12 160.20 698.35 159.49 C 693.39 154.03 692.39 146.29 692.50 139.19 Z" />
<path fill="#003e88" opacity="1.00" d=" M 206.27 292.36 C 209.03 288.88 213.85 287.76 218.10 287.95 C 220.33 287.93 222.21 289.79 222.17 292.03 C 222.80 299.16 226.23 305.51 229.62 311.66 C 231.83 308.06 233.50 304.17 235.77 300.61 C 235.44 300.29 234.77 299.63 234.44 299.30 C 238.62 296.21 243.52 293.25 248.95 293.86 C 250.70 294.16 253.00 295.88 251.99 297.90 C 249.39 304.41 241.80 306.45 238.21 312.18 C 233.17 319.47 231.26 328.34 229.98 336.96 C 227.27 340.17 222.40 338.50 218.82 338.31 C 224.06 344.20 229.02 350.41 233.15 357.14 C 234.48 358.94 232.95 361.35 230.99 361.78 C 227.05 362.83 222.80 362.68 218.92 361.46 C 216.22 360.68 215.03 357.84 213.04 356.10 C 209.68 352.99 206.03 350.07 201.96 347.95 C 198.25 347.30 194.35 348.69 190.74 347.24 C 186.21 345.83 183.19 341.57 182.10 337.11 C 184.85 338.34 187.82 340.16 190.94 339.15 C 194.98 338.10 199.58 337.36 203.34 339.67 C 206.12 340.97 206.64 344.34 208.64 346.44 C 211.55 349.64 214.23 353.06 216.32 356.87 C 217.21 359.05 220.03 358.29 221.65 357.46 C 222.02 356.31 221.34 355.14 221.15 354.02 C 218.78 345.33 214.10 337.47 208.70 330.35 C 207.47 328.69 206.01 327.04 205.75 324.91 C 210.25 328.39 213.61 333.07 217.69 337.01 C 220.24 332.71 222.33 327.93 222.99 322.97 C 221.81 318.49 218.56 314.85 216.94 310.51 C 213.88 313.35 209.80 314.47 206.07 316.14 C 204.30 316.63 204.25 318.64 203.75 320.08 C 202.29 318.00 200.41 315.73 201.07 312.99 C 202.42 309.66 204.73 306.68 205.17 303.02 C 205.98 299.51 203.74 295.43 206.27 292.36 Z" />
<path fill="#003e88" opacity="1.00" d=" M 967.72 395.78 C 965.94 392.06 968.14 388.24 970.10 385.11 C 972.96 387.83 975.13 391.57 979.04 392.92 C 980.83 393.74 983.09 394.16 984.05 396.12 C 986.10 399.03 984.07 402.76 982.11 405.14 C 978.12 407.75 973.33 405.03 969.12 404.52 C 967.45 405.97 965.79 407.44 964.21 408.99 C 967.05 409.91 969.87 409.29 972.26 407.60 C 974.84 408.72 972.97 412.34 973.25 414.55 C 975.93 417.48 978.20 420.76 980.77 423.79 C 981.73 421.55 981.43 419.25 980.34 417.17 C 982.18 418.61 983.57 421.13 986.01 421.50 C 987.47 418.22 989.53 415.30 992.02 412.70 C 995.09 415.41 995.05 420.14 995.40 423.94 C 995.59 428.84 990.50 431.49 986.22 431.72 C 988.68 436.52 992.70 441.86 990.24 447.50 C 989.27 451.12 985.89 454.16 981.95 453.08 C 978.65 452.40 978.90 448.25 976.55 446.47 C 973.79 444.11 970.99 441.80 968.57 439.08 C 966.94 439.47 964.92 439.85 963.89 438.15 C 960.06 432.90 954.70 429.07 949.09 425.93 C 951.54 430.30 954.53 434.52 958.83 437.25 C 961.47 438.57 961.86 442.20 960.52 444.56 C 958.96 445.82 957.07 446.75 955.07 446.96 C 953.34 445.63 951.75 444.13 950.06 442.77 C 949.27 444.83 948.98 448.34 945.97 447.99 C 940.41 446.28 934.77 444.72 928.96 444.12 C 927.68 443.70 925.90 444.41 925.96 445.93 C 925.68 453.40 928.16 461.27 933.49 466.64 C 938.76 469.85 945.14 467.62 950.80 466.93 C 949.66 468.56 947.71 469.19 946.05 470.09 C 941.31 472.34 936.81 475.09 931.99 477.16 C 930.26 478.13 929.05 475.91 928.31 474.72 C 923.35 465.59 918.78 455.57 919.36 444.95 C 919.35 442.00 920.78 438.65 923.85 437.83 C 930.38 436.09 936.97 438.34 943.43 439.33 C 943.04 436.38 939.80 435.68 937.75 434.18 C 930.26 429.36 921.82 425.96 915.21 419.87 C 917.97 417.29 922.49 417.05 925.39 419.56 C 929.13 422.57 933.21 425.24 937.83 426.71 C 937.35 424.27 935.59 420.88 938.26 419.06 C 941.02 417.25 945.82 415.35 947.98 418.98 C 949.94 421.85 953.26 423.17 956.18 424.83 C 956.41 421.72 958.80 419.23 961.94 419.05 C 965.26 418.14 964.82 422.67 966.95 424.03 C 970.35 426.88 973.93 431.30 972.32 436.01 C 976.09 438.32 980.15 440.15 984.46 441.19 C 981.66 433.59 975.06 428.13 970.64 421.45 C 969.56 420.11 968.87 418.13 966.95 417.83 C 961.66 416.36 956.31 414.91 950.84 414.33 C 952.12 412.99 953.57 411.81 955.09 410.74 C 951.00 409.56 946.40 411.51 942.67 409.12 C 942.99 408.58 943.64 407.49 943.96 406.95 C 933.18 407.88 922.48 409.60 911.91 411.88 C 910.06 412.11 907.42 412.76 906.22 410.90 C 907.80 404.43 913.61 399.42 920.05 398.05 C 931.43 395.40 942.80 392.65 954.04 389.47 C 955.79 389.03 957.71 388.73 959.47 389.37 C 961.81 390.46 962.28 394.49 959.59 395.48 C 956.39 396.74 954.65 400.09 954.69 403.43 C 956.85 403.81 958.84 402.83 959.99 401.01 C 961.82 398.33 964.66 396.69 967.72 395.78 M 927.82 400.78 C 924.93 401.69 921.77 402.45 919.64 404.74 C 928.18 405.82 936.83 406.17 945.44 405.67 C 947.93 402.66 950.76 399.96 953.73 397.42 C 945.11 398.75 936.30 398.64 927.82 400.78 Z" />
<path fill="#003e88" opacity="1.00" d=" M 710.17 409.00 C 728.85 408.99 747.53 409.08 766.21 408.96 C 767.88 411.92 769.38 414.98 770.85 418.05 C 749.70 418.03 728.56 418.18 707.42 417.97 C 708.34 414.98 709.26 411.99 710.17 409.00 Z" />
<path fill="#003e88" opacity="1.00" d=" M 704.19 428.77 C 728.02 428.57 751.85 428.66 775.68 428.73 C 776.68 431.35 777.71 433.97 778.73 436.60 C 753.90 436.64 729.07 436.62 704.24 436.61 C 704.24 434.00 704.22 431.38 704.19 428.77 Z" />
<path fill="#003e88" opacity="1.00" d=" M 338.17 526.44 C 342.16 526.50 346.15 526.40 350.15 526.56 C 351.16 528.95 352.15 531.35 353.16 533.75 C 347.52 533.75 341.88 533.76 336.23 533.74 C 336.84 531.29 337.48 528.86 338.17 526.44 Z" />
<path fill="#003e88" opacity="1.00" d=" M 344.45 616.63 C 360.97 616.60 377.50 616.63 394.02 616.62 C 395.93 619.97 397.81 623.35 399.74 626.70 C 383.00 626.95 366.24 626.81 349.49 626.77 C 347.78 623.41 346.05 620.05 344.45 616.63 Z" />
<path fill="#003e88" opacity="1.00" d=" M 411.91 616.63 C 441.95 616.60 471.99 616.62 502.03 616.62 C 502.06 619.65 502.03 622.69 501.96 625.72 C 474.47 625.61 446.98 625.80 419.49 625.63 C 417.00 622.59 414.34 619.71 411.91 616.63 Z" />
<path fill="#003e88" opacity="1.00" d=" M 935.02 621.14 C 944.12 626.68 953.24 632.19 962.33 637.75 C 964.06 638.90 966.13 639.26 968.14 639.73 C 974.77 641.21 981.39 642.77 988.02 644.30 C 987.48 646.69 986.93 649.07 986.37 651.47 C 978.26 649.74 970.24 647.51 962.09 646.04 C 952.38 646.55 942.73 648.10 933.01 648.49 C 933.69 648.96 934.38 649.43 935.09 649.91 C 934.27 652.52 933.53 655.16 932.84 657.81 C 948.87 662.39 964.90 666.97 980.92 671.60 C 980.22 673.95 979.55 676.31 978.86 678.66 C 962.93 674.13 947.04 669.42 931.07 665.04 C 929.52 667.27 929.40 670.41 928.49 673.01 C 926.25 672.44 924.03 671.81 921.83 671.15 C 924.58 661.25 927.67 651.44 930.32 641.52 C 937.91 640.99 945.52 640.60 953.11 639.87 C 946.56 635.94 939.79 632.38 933.25 628.43 C 933.85 626.00 934.43 623.57 935.02 621.14 Z" />
<path fill="#003e88" opacity="1.00" d=" M 161.84 632.86 C 167.17 625.65 178.94 624.07 185.55 630.37 C 190.04 634.56 190.50 641.53 188.10 646.93 C 184.68 647.71 181.29 648.62 177.89 649.46 C 180.34 646.22 183.85 642.52 182.20 638.09 C 180.22 632.08 171.56 632.84 167.99 636.91 C 163.61 642.33 162.92 650.05 157.56 654.78 C 151.40 659.79 141.33 660.27 135.49 654.48 C 131.04 650.02 130.56 643.07 132.25 637.29 C 135.57 636.40 138.91 635.56 142.25 634.78 C 139.87 638.30 137.05 642.64 138.99 647.02 C 141.59 653.08 151.05 652.42 154.28 647.28 C 157.26 642.71 158.33 637.11 161.84 632.86 Z" />
<path fill="#003e88" opacity="1.00" d=" M 442.80 656.39 C 449.63 656.45 456.46 656.21 463.29 656.53 C 463.23 659.03 463.21 661.55 463.21 664.07 C 457.79 664.06 452.38 664.09 446.96 664.05 C 445.35 661.62 443.86 659.11 442.80 656.39 Z" />
<path fill="#003e88" opacity="1.00" d=" M 878.85 757.93 C 880.22 755.80 881.67 753.71 883.40 751.86 C 896.31 766.22 909.56 780.27 922.47 794.63 C 921.20 796.31 919.95 798.00 918.72 799.71 C 901.07 791.77 883.45 783.76 865.81 775.79 C 867.23 773.76 868.67 771.75 870.14 769.78 C 882.39 775.46 894.51 781.41 906.80 787.01 C 897.43 777.37 888.20 767.59 878.85 757.93 Z" />
<path fill="#003e88" opacity="1.00" d=" M 560.75 816.92 C 559.12 807.84 569.30 798.01 578.30 801.69 C 585.48 804.28 590.07 812.43 588.47 819.91 C 587.42 824.82 584.04 828.78 580.40 832.05 C 585.50 835.87 591.58 840.88 591.08 847.95 C 590.42 857.18 584.62 867.16 574.98 869.11 C 564.97 871.21 556.58 857.68 562.55 849.54 C 563.63 847.66 566.60 847.03 567.92 849.00 C 570.34 852.51 569.15 857.00 569.83 860.96 C 570.17 864.07 574.89 863.47 575.80 861.03 C 577.51 856.41 576.56 851.34 576.23 846.56 C 575.96 843.38 575.46 839.28 571.95 838.07 C 569.63 836.82 565.42 836.70 565.25 833.38 C 566.96 830.02 571.49 830.42 573.89 827.92 C 576.14 824.74 576.08 820.57 575.70 816.87 C 575.31 814.19 575.11 810.65 572.07 809.63 C 569.16 812.95 571.43 817.71 569.27 821.36 C 568.54 823.56 566.12 824.31 564.01 824.21 C 561.60 822.65 561.21 819.49 560.75 816.92 Z" />
<path fill="#003e88" opacity="1.00" d=" M 829.32 818.75 C 831.09 817.04 832.92 815.39 834.75 813.75 C 843.17 822.82 851.63 831.86 860.08 840.92 C 863.63 844.78 867.64 848.71 868.94 853.98 C 869.89 858.06 867.50 861.97 864.57 864.60 C 861.60 867.45 857.16 869.48 853.09 867.85 C 848.60 866.08 845.25 862.42 842.04 858.97 C 833.38 849.68 824.71 840.40 816.06 831.11 C 817.85 829.42 819.64 827.73 821.44 826.06 C 830.90 836.09 840.24 846.25 849.69 856.30 C 851.56 858.11 853.45 860.16 856.00 861.00 C 858.82 861.41 861.62 858.76 861.83 856.00 C 861.19 852.84 858.76 850.51 856.74 848.16 C 847.61 838.35 838.45 828.56 829.32 818.75 Z" />
<path fill="#003e88" opacity="1.00" d=" M 262.19 869.97 C 274.39 855.45 286.55 840.91 298.77 826.40 C 303.74 830.59 308.74 834.76 313.71 838.96 C 312.26 840.78 310.70 842.52 309.14 844.25 C 306.09 841.66 303.03 839.08 299.95 836.54 C 296.22 840.85 292.67 845.32 288.88 849.58 C 291.80 852.31 294.93 854.80 298.01 857.36 C 296.59 859.11 295.16 860.87 293.74 862.64 C 290.52 860.20 287.56 857.46 284.39 854.98 C 280.43 859.83 276.35 864.59 272.35 869.41 C 275.53 872.08 278.71 874.75 281.91 877.41 C 280.43 879.21 278.94 881.01 277.43 882.79 C 272.35 878.51 267.25 874.26 262.19 869.97 Z" />
<path fill="#003e88" opacity="1.00" d=" M 497.90 981.93 C 500.19 963.12 502.52 944.33 504.81 925.53 C 506.89 925.75 508.98 925.98 511.07 926.19 C 513.66 938.84 516.25 951.49 518.60 964.18 C 520.21 952.06 521.60 939.90 523.12 927.76 C 525.32 928.00 527.53 928.25 529.74 928.51 C 527.51 947.35 525.14 966.18 522.83 985.01 C 520.75 984.76 518.68 984.52 516.61 984.30 C 513.82 971.60 511.78 958.74 508.83 946.08 C 507.77 958.34 505.92 970.53 504.55 982.76 C 502.33 982.49 500.11 982.21 497.90 981.93 Z" />
<path fill="#003e88" opacity="1.00" d=" M 590.62 928.66 C 595.48 925.46 601.82 926.52 606.55 929.42 C 606.83 932.95 607.10 936.47 607.27 940.02 C 604.48 936.74 600.90 932.49 596.02 933.97 C 590.40 935.68 590.09 943.59 593.29 947.64 C 597.90 952.85 605.38 954.92 609.08 961.05 C 612.91 968.02 611.58 978.07 604.77 982.74 C 599.62 986.26 592.68 985.50 587.35 982.78 C 587.11 979.29 586.93 975.81 586.56 972.35 C 589.66 975.66 593.88 979.35 598.80 977.75 C 604.71 975.65 605.39 966.86 601.07 962.89 C 597.08 959.17 591.74 957.12 588.16 952.91 C 581.82 946.19 582.57 933.70 590.62 928.66 Z" />
<path fill="#003e88" opacity="1.00" d=" M 540.49 931.44 C 545.10 928.13 551.34 928.72 556.24 931.09 C 556.20 933.87 556.16 936.66 556.10 939.46 C 553.28 937.62 550.00 935.32 546.46 936.54 C 542.52 937.81 541.15 942.22 540.34 945.85 C 538.92 953.81 538.86 962.03 539.87 970.04 C 540.44 973.76 541.80 978.55 546.08 979.38 C 549.54 980.28 552.77 978.32 555.34 976.22 C 555.32 979.09 555.21 981.97 555.03 984.84 C 550.35 986.92 544.65 987.63 540.08 984.89 C 535.36 981.99 533.39 976.36 532.48 971.17 C 531.23 963.21 531.37 955.05 532.56 947.10 C 533.59 941.31 535.53 935.06 540.49 931.44 Z" />
<path fill="#003e88" opacity="1.00" d=" M 560.10 929.86 C 566.59 929.69 573.10 929.62 579.60 929.45 C 579.68 931.79 579.72 934.14 579.75 936.49 C 575.72 936.53 571.68 936.60 567.66 936.69 C 567.73 942.44 567.82 948.19 567.98 953.95 C 571.98 953.86 575.98 953.77 579.98 953.73 C 579.98 956.01 579.97 958.31 579.93 960.61 C 575.96 960.60 571.99 960.69 568.03 960.78 C 568.15 967.05 568.26 973.32 568.39 979.60 C 572.58 979.53 576.76 979.42 580.95 979.42 C 580.98 981.75 580.97 984.10 580.87 986.45 C 574.27 986.44 567.68 986.64 561.08 986.72 C 560.83 967.76 560.41 948.81 560.10 929.86 Z" />
</g>
<g id="#003f88ff">
<path fill="#003f88" opacity="1.00" d=" M 647.79 105.42 C 653.53 104.10 660.68 107.77 661.38 113.99 C 661.12 116.89 658.27 118.53 655.90 119.62 C 654.13 119.43 654.28 117.13 653.60 115.94 C 651.57 115.37 652.34 114.04 653.84 113.27 C 652.78 109.95 650.02 107.88 647.79 105.42 Z" />
<path fill="#003f88" opacity="1.00" d=" M 375.92 123.86 C 381.48 119.32 391.22 123.00 392.51 130.00 C 391.99 136.08 390.21 141.96 388.90 147.91 C 394.12 143.87 400.89 141.03 407.55 142.77 C 411.16 143.32 414.72 146.11 415.01 149.93 C 414.46 151.58 412.68 152.22 411.46 153.26 C 407.97 155.60 406.32 160.06 402.16 161.49 C 405.73 166.55 401.60 172.04 400.87 177.30 C 404.91 175.55 409.58 174.42 413.82 176.22 C 416.28 176.90 418.43 179.44 417.71 182.09 C 417.06 184.64 414.29 185.63 412.46 187.18 C 414.32 193.56 416.62 200.21 415.49 206.93 C 414.77 211.03 411.21 214.46 406.94 214.46 C 398.92 214.54 391.07 211.75 384.15 207.86 C 382.01 206.86 381.17 204.25 381.80 202.07 C 383.33 195.14 388.49 189.90 393.48 185.21 C 391.47 182.50 390.25 178.40 392.63 175.55 C 393.76 174.21 394.16 172.51 393.97 170.78 C 390.39 173.42 388.61 177.59 386.06 181.08 C 384.79 182.83 381.73 183.91 380.52 181.52 C 379.11 178.95 377.37 174.57 380.62 172.69 C 386.56 169.10 391.14 163.84 395.87 158.86 C 398.94 155.56 400.10 151.01 400.60 146.64 C 394.71 148.89 390.25 153.66 386.65 158.67 C 381.61 165.31 374.27 169.77 369.23 176.37 C 364.62 184.30 368.70 193.42 369.72 201.72 C 368.81 203.35 367.02 201.47 365.80 201.22 C 362.16 199.58 360.19 195.92 358.31 192.61 C 357.19 191.16 358.17 189.44 358.36 187.87 C 359.01 183.30 357.74 178.66 358.37 174.09 C 359.13 170.08 362.79 167.73 366.13 165.95 C 360.57 162.45 356.77 156.38 356.64 149.75 C 357.77 150.21 358.90 150.68 360.04 151.16 C 361.00 148.86 361.28 146.32 362.43 144.09 C 364.29 147.90 365.65 152.18 368.94 155.07 C 370.72 156.66 372.22 158.52 373.49 160.55 C 375.80 157.55 377.80 154.30 378.99 150.69 C 371.96 150.62 367.75 144.43 364.79 138.89 C 364.30 138.74 363.32 138.43 362.83 138.27 C 364.06 134.83 368.05 136.14 370.82 136.24 C 371.50 131.84 372.21 126.84 375.92 123.86 M 376.11 124.88 C 372.21 128.15 372.33 134.66 375.76 138.21 C 378.23 140.77 379.49 144.12 380.53 147.45 C 381.72 141.06 384.00 134.58 382.83 128.00 C 381.87 125.53 378.66 123.37 376.11 124.88 M 367.21 166.93 C 363.89 168.60 360.76 171.85 361.45 175.86 C 361.85 176.94 361.81 179.10 363.44 178.85 C 365.52 175.24 367.62 171.65 370.09 168.30 C 369.12 167.85 368.16 167.39 367.21 166.93 M 393.97 194.99 C 391.31 196.52 387.96 197.71 386.86 200.88 C 385.82 203.37 386.10 207.32 389.11 208.27 C 395.67 209.31 403.22 207.88 407.96 202.95 C 409.37 199.01 407.41 194.95 406.23 191.21 C 404.42 192.39 402.56 193.52 400.55 194.34 C 401.73 191.67 405.72 189.85 403.99 186.49 C 399.99 188.52 397.90 192.87 393.97 194.99 Z" />
<path fill="#003f88" opacity="1.00" d=" M 706.96 132.57 C 717.48 132.59 728.72 132.52 738.08 127.05 C 738.49 127.34 739.31 127.93 739.72 128.22 C 739.53 131.65 739.75 135.10 739.44 138.53 C 739.26 140.12 737.69 141.26 736.13 140.86 C 727.91 139.82 719.52 138.76 711.86 135.39 C 709.29 134.27 706.49 133.91 703.79 133.30 C 704.78 132.84 705.83 132.48 706.96 132.57 Z" />
<path fill="#003f88" opacity="1.00" d=" M 762.06 138.17 C 763.88 137.03 765.68 135.13 767.97 135.19 C 771.84 136.63 772.36 141.40 772.53 144.96 C 771.36 148.59 768.34 151.18 766.63 154.54 C 764.54 158.59 762.57 162.74 761.03 167.04 C 760.45 169.11 762.53 170.21 764.02 171.04 C 766.88 172.51 769.19 174.79 771.48 177.01 C 771.31 178.88 769.90 180.21 767.98 180.03 C 764.23 178.64 760.25 175.98 756.23 176.72 C 748.99 191.49 742.15 206.52 733.32 220.44 C 732.01 222.29 730.95 224.63 728.63 225.38 C 731.15 207.77 741.28 192.55 748.11 176.41 C 740.99 177.09 733.87 178.90 727.69 182.57 C 724.85 184.28 722.72 180.79 720.84 179.18 C 718.95 177.56 717.18 172.61 720.86 172.20 C 722.85 173.02 724.86 174.28 727.13 173.60 C 735.03 172.07 742.93 170.19 751.03 170.06 C 755.63 160.44 760.85 151.12 765.44 141.50 C 766.55 139.26 764.19 137.51 762.06 138.17 Z" />
<path fill="#003f88" opacity="1.00" d=" M 741.91 140.90 C 745.38 137.56 750.03 140.78 751.81 144.24 C 753.26 146.98 755.74 150.56 753.60 153.58 C 750.55 154.81 747.45 155.96 744.68 157.78 C 745.69 160.40 746.46 163.18 746.27 166.01 C 745.32 167.52 743.39 167.24 741.90 167.54 C 736.50 168.05 731.50 170.42 726.13 171.08 C 729.26 168.00 733.30 166.04 736.58 163.10 C 734.90 160.00 736.07 156.65 737.28 153.64 C 741.00 153.69 743.87 150.98 745.71 148.01 C 745.32 145.30 743.14 143.26 741.91 140.90 Z" />
<path fill="#003f88" opacity="1.00" d=" M 820.36 209.01 C 821.01 202.58 824.76 196.24 830.82 193.60 C 830.83 194.47 830.86 196.22 830.88 197.09 C 833.39 196.89 835.87 196.39 838.34 195.86 C 836.00 199.40 832.61 202.33 831.41 206.51 C 830.69 208.94 829.68 211.26 828.41 213.45 C 832.12 214.04 835.89 214.31 839.65 214.06 C 837.72 209.55 838.55 204.35 841.24 200.34 C 842.27 198.22 845.10 196.32 843.47 193.77 C 847.23 193.51 848.01 197.43 848.84 200.19 C 853.04 199.17 857.57 197.44 861.84 199.17 C 868.88 201.77 870.14 212.87 864.04 217.07 C 858.43 219.18 852.48 220.28 846.63 221.48 C 851.95 224.59 857.34 228.69 858.98 234.96 C 860.31 238.62 859.96 243.38 856.50 245.74 C 855.01 246.60 853.69 245.28 852.41 244.69 C 848.58 242.22 843.51 242.69 840.02 239.55 C 837.09 244.97 830.35 243.69 825.33 245.21 C 828.77 248.26 831.98 252.16 832.02 257.00 C 832.52 260.02 829.64 263.36 826.51 262.48 C 824.72 261.81 823.07 260.87 821.40 260.01 C 816.74 264.52 811.78 269.22 805.50 271.30 C 801.20 272.77 796.21 270.73 794.36 266.56 C 790.91 259.31 789.97 251.02 790.60 243.08 C 790.73 240.77 792.89 239.27 795.00 238.90 C 801.81 237.40 808.64 239.70 814.96 242.08 C 816.12 240.21 817.45 238.30 819.58 237.47 C 822.12 235.83 826.02 238.91 827.86 235.77 C 824.05 234.54 820.06 234.20 816.11 233.78 C 814.07 233.53 811.23 231.76 812.32 229.37 C 813.96 226.66 817.45 222.75 820.84 225.18 C 826.53 228.88 833.15 230.56 839.53 232.65 C 843.86 234.04 848.42 232.99 852.64 231.75 C 846.35 224.83 836.14 225.31 828.02 221.93 C 820.92 219.73 813.86 214.51 806.15 217.14 C 799.59 219.45 794.91 225.01 788.91 228.27 C 788.00 224.40 788.44 220.20 790.81 216.93 C 792.11 215.31 792.76 212.58 795.11 212.23 C 800.61 211.29 804.78 207.05 810.08 205.55 C 813.90 204.73 817.31 207.06 820.36 209.01 M 849.52 205.44 C 848.28 208.86 845.85 211.60 843.02 213.81 C 848.94 212.45 855.13 211.49 860.43 208.35 C 863.39 206.94 864.34 202.33 861.80 200.11 C 857.17 197.95 851.25 200.76 849.52 205.44 M 806.70 212.22 C 811.10 212.54 815.52 212.83 819.86 213.71 C 819.82 212.55 819.80 211.40 819.78 210.26 C 817.35 208.92 814.72 207.33 811.83 208.13 C 809.48 208.46 807.97 210.42 806.70 212.22 M 792.28 248.01 C 794.07 254.48 798.71 260.42 805.07 262.87 C 809.36 262.65 812.35 258.97 815.12 256.10 C 813.22 255.01 811.38 253.81 809.73 252.39 C 812.08 252.28 817.62 255.63 817.83 251.41 C 812.94 249.32 807.46 248.41 803.40 244.70 C 800.00 241.57 792.50 242.80 792.28 248.01 Z" />
<path fill="#003f88" opacity="1.00" d=" M 903.95 295.32 C 906.66 289.43 911.92 284.76 918.39 283.55 C 918.21 284.46 917.86 286.28 917.68 287.19 C 920.13 287.63 922.61 287.94 925.11 288.20 C 921.70 290.75 917.64 292.69 915.27 296.38 C 913.89 298.41 912.29 300.28 910.53 301.98 C 913.82 303.74 917.32 305.03 920.96 305.88 C 919.99 298.77 925.58 293.70 930.59 289.75 C 930.61 289.20 930.66 288.11 930.69 287.56 C 934.17 288.59 933.96 292.36 933.83 295.28 C 938.19 295.60 943.12 295.24 946.70 298.25 C 952.42 302.79 950.51 313.12 943.92 315.82 C 937.69 316.39 931.44 315.54 925.23 315.06 C 930.45 319.77 934.39 326.67 933.21 333.92 C 933.13 336.83 931.19 339.31 928.83 340.83 C 926.84 341.90 925.28 340.17 924.13 338.81 C 921.24 335.33 916.26 334.38 913.90 330.36 C 909.57 334.74 903.41 331.42 898.20 331.53 C 900.45 335.19 902.35 339.50 901.33 343.89 C 901.14 346.55 898.92 349.16 896.11 348.97 C 893.51 348.59 892.02 346.14 890.23 344.51 C 884.21 347.42 877.93 350.69 871.08 350.62 C 866.76 350.56 862.98 347.27 862.36 343.00 C 861.18 335.07 862.66 326.89 865.54 319.47 C 866.40 316.93 869.45 316.20 871.84 316.68 C 878.47 317.49 884.08 321.48 889.21 325.49 C 891.57 323.06 895.55 321.20 898.75 323.18 C 900.12 323.99 901.72 324.01 903.29 324.00 C 900.53 319.88 894.92 319.67 891.19 316.84 C 889.62 315.68 889.15 313.11 891.00 311.98 C 893.41 310.08 897.59 307.91 899.89 311.14 C 904.22 316.27 909.98 319.80 915.43 323.61 C 919.18 326.24 923.92 326.62 928.37 326.54 C 925.68 321.52 920.81 318.04 915.89 315.41 C 908.95 311.88 903.37 306.35 897.11 301.84 C 892.79 298.64 886.85 298.34 881.92 300.21 C 877.29 301.35 873.05 303.81 868.36 304.60 C 868.39 298.57 872.96 293.76 877.95 291.12 C 883.41 291.79 888.62 289.67 893.98 289.04 C 898.31 288.80 901.47 292.22 903.95 295.32 M 889.99 294.52 C 894.20 296.06 898.38 297.70 902.35 299.82 C 902.54 299.07 902.92 297.57 903.11 296.82 C 900.62 292.05 893.83 290.31 889.99 294.52 M 932.78 300.74 C 930.68 303.53 927.61 305.24 924.52 306.72 C 930.73 307.04 937.15 308.05 943.25 306.29 C 946.07 305.50 948.17 301.35 946.06 298.91 C 942.24 295.51 935.71 296.73 932.78 300.74 M 865.75 325.04 C 865.80 331.49 868.33 338.25 873.51 342.32 C 877.66 343.72 881.66 340.78 885.26 339.01 C 883.81 337.37 882.42 335.70 881.21 333.90 C 884.08 334.60 886.53 338.33 889.59 336.07 C 886.98 332.40 882.31 331.04 879.62 327.47 C 877.73 325.17 876.13 322.16 872.98 321.47 C 870.27 320.65 865.92 321.63 865.75 325.04 Z" />
<path fill="#003f88" opacity="1.00" d=" M 173.00 315.89 C 176.25 313.44 179.84 310.83 184.07 310.74 C 186.93 311.06 190.50 312.73 190.87 315.95 C 190.76 318.76 188.47 320.71 187.14 323.00 C 185.03 325.85 184.27 329.72 181.16 331.75 C 180.97 329.21 180.83 326.67 180.75 324.12 C 176.79 321.84 171.79 324.06 167.60 321.99 C 168.37 319.20 170.93 317.64 173.00 315.89 Z" />
<path fill="#003f88" opacity="1.00" d=" M 165.20 385.30 C 166.96 382.67 169.81 379.98 173.25 380.64 C 173.50 385.00 170.73 389.42 171.35 393.52 C 184.16 399.02 197.77 402.59 210.34 408.70 C 213.66 410.31 217.35 411.78 219.35 415.10 C 212.07 415.15 205.13 412.70 198.23 410.70 C 189.50 407.73 180.65 405.12 171.82 402.48 C 172.56 405.96 173.59 409.41 175.46 412.47 C 181.87 414.69 188.01 418.44 192.01 424.02 C 193.29 426.34 190.19 428.46 188.12 427.46 C 182.47 425.67 176.52 424.99 170.89 423.17 C 167.28 422.18 166.28 418.33 164.20 415.72 C 161.83 414.38 159.03 413.98 156.52 412.96 C 155.57 413.58 154.83 414.38 154.31 415.36 C 152.88 415.80 151.62 416.61 150.29 417.27 C 152.31 419.93 154.89 422.22 158.19 423.10 C 157.48 420.96 155.46 419.38 155.16 417.15 C 155.42 417.11 155.95 417.03 156.21 417.00 C 160.21 420.43 162.94 425.56 168.06 427.52 C 177.67 431.41 188.36 431.75 197.81 436.18 C 194.62 439.68 189.86 440.79 185.61 442.44 C 181.78 443.70 178.07 445.31 174.24 446.59 C 174.18 448.10 174.12 449.62 174.06 451.15 C 177.67 452.81 181.24 454.58 184.88 456.20 C 187.60 457.44 190.64 458.01 193.09 459.82 C 190.83 463.21 186.93 465.07 182.93 465.30 C 174.29 465.98 166.07 462.69 157.92 460.32 C 152.95 458.66 146.80 460.34 142.75 456.32 C 139.74 452.59 139.06 447.58 136.59 443.53 C 135.56 442.39 133.78 443.26 132.45 443.22 C 128.51 443.83 124.54 444.20 120.56 444.11 C 123.66 440.34 127.48 437.12 131.78 434.80 C 134.83 433.21 138.80 432.27 141.93 434.15 C 142.98 435.66 141.77 437.51 141.63 439.13 C 140.44 444.30 139.70 450.29 142.88 454.92 C 148.54 454.49 154.15 448.96 159.74 452.17 C 164.80 456.62 170.92 459.97 177.55 461.36 C 177.27 459.00 175.15 457.82 173.48 456.49 C 168.24 452.51 162.55 449.20 156.82 446.00 C 160.22 446.28 163.53 447.15 166.88 447.79 C 164.95 442.35 162.72 437.02 160.59 431.65 C 159.04 430.95 157.50 430.22 155.96 429.48 C 156.72 431.75 158.35 434.37 156.64 436.63 C 154.59 439.50 151.03 440.56 148.05 442.17 C 148.06 435.62 145.66 429.35 142.36 423.78 C 138.99 422.98 135.90 420.00 132.27 421.26 C 130.84 421.55 128.87 422.56 127.84 420.97 C 127.57 418.06 130.47 416.17 132.52 414.61 C 135.67 412.12 139.54 414.41 142.88 415.15 C 144.59 413.77 146.46 412.55 147.91 410.89 C 148.57 407.63 146.46 404.75 145.20 401.93 C 143.75 399.50 142.48 395.90 139.08 395.97 C 138.90 397.36 138.70 398.76 138.48 400.16 C 136.37 396.55 137.07 391.98 139.90 388.97 C 141.57 387.33 143.21 384.64 145.89 385.01 C 146.93 385.83 147.33 387.14 147.80 388.33 C 149.90 394.46 151.55 400.75 152.88 407.09 C 154.89 406.39 156.88 405.27 159.07 405.46 C 161.05 406.60 162.90 407.98 164.93 409.04 C 164.78 406.90 164.45 404.77 163.74 402.74 C 159.63 402.27 161.24 397.84 162.53 395.42 C 164.42 392.32 163.14 388.32 165.20 385.30 M 170.13 418.58 C 170.70 424.37 178.12 425.53 182.18 422.56 C 178.75 419.87 174.26 419.39 170.13 418.58 M 167.95 433.62 C 170.17 437.23 172.20 440.95 173.89 444.84 C 177.37 443.72 179.48 440.68 181.65 437.96 C 177.35 435.84 172.37 435.53 167.95 433.62 Z" />
<path fill="#003f88" opacity="1.00" d=" M 290.60 627.03 C 296.97 618.65 302.78 609.81 309.53 601.74 C 310.82 604.83 312.13 607.92 313.46 611.01 C 308.79 617.84 302.96 623.97 299.58 631.62 C 297.67 635.61 296.36 639.84 295.21 644.11 C 293.25 638.54 292.20 632.71 290.60 627.03 Z" />
<path fill="#003f88" opacity="1.00" d=" M 172.52 656.67 C 178.52 655.70 185.13 655.29 190.63 658.34 C 196.17 661.42 198.34 668.59 196.77 674.50 C 194.16 675.15 191.56 675.87 188.98 676.65 C 189.98 673.32 191.22 669.30 188.79 666.27 C 185.97 662.78 180.92 663.12 176.91 663.55 C 169.37 664.70 161.95 666.88 155.00 670.04 C 151.84 671.63 147.97 673.93 147.91 677.93 C 147.60 681.85 150.74 684.62 153.63 686.69 C 150.89 687.42 148.15 688.16 145.42 688.91 C 142.04 685.21 139.73 680.11 140.80 675.04 C 141.86 669.81 146.35 666.22 150.80 663.80 C 157.58 660.25 165.02 658.08 172.52 656.67 Z" />
<path fill="#003f88" opacity="1.00" d=" M 918.14 679.50 C 918.97 677.20 919.87 674.92 920.79 672.65 C 938.56 679.16 956.37 685.59 974.15 692.10 C 973.32 694.41 972.49 696.71 971.67 699.02 C 953.81 692.57 935.92 686.17 918.14 679.50 Z" />
<path fill="#003f88" opacity="1.00" d=" M 146.52 695.68 C 164.07 688.49 181.68 681.46 199.26 674.34 C 200.19 676.62 201.12 678.90 202.03 681.20 C 195.26 684.04 188.32 686.53 181.65 689.61 C 183.06 692.71 184.33 695.88 185.51 699.08 C 192.46 696.75 199.14 693.64 205.98 691.01 C 206.89 693.24 207.81 695.46 208.79 697.67 C 191.33 705.13 173.60 711.95 156.02 719.15 C 155.00 716.88 154.12 714.54 153.36 712.18 C 162.09 708.90 170.66 705.19 179.36 701.81 C 178.12 698.52 176.77 695.27 175.51 692.00 C 166.69 695.35 158.03 699.08 149.24 702.48 C 148.33 700.21 147.43 697.94 146.52 695.68 Z" />
<path fill="#003f88" opacity="1.00" d=" M 918.36 687.13 C 921.61 688.49 924.95 689.67 928.11 691.28 C 924.08 692.05 919.05 693.42 917.89 697.97 C 916.25 704.09 923.79 708.35 929.05 707.00 C 935.71 705.02 940.87 699.24 948.04 698.72 C 955.90 698.47 964.20 704.01 965.41 712.11 C 966.31 718.28 962.62 724.09 957.92 727.77 C 954.64 726.53 951.40 725.23 948.22 723.79 C 952.32 722.64 957.11 720.60 958.15 715.98 C 959.65 709.46 951.50 704.43 945.85 706.77 C 940.70 708.82 936.42 712.73 930.96 714.07 C 922.17 716.61 911.47 710.35 910.57 700.96 C 909.94 695.21 913.62 690.01 918.36 687.13 Z" />
<path fill="#003f88" opacity="1.00" d=" M 200.57 707.67 C 204.41 706.89 208.66 706.80 212.17 708.78 C 217.21 711.73 219.70 718.62 217.22 724.02 C 214.98 728.91 210.54 732.30 206.19 735.24 C 200.32 738.99 194.07 742.16 187.56 744.62 C 182.55 746.36 177.01 747.95 171.76 746.32 C 165.12 744.32 161.37 735.80 164.66 729.62 C 167.66 723.79 173.39 720.11 178.83 716.82 C 185.70 713.00 192.82 709.33 200.57 707.67 M 199.33 715.56 C 192.53 717.85 186.12 721.19 179.97 724.86 C 176.58 727.05 172.96 729.41 171.02 733.08 C 169.51 735.89 171.77 739.53 174.89 739.67 C 179.90 740.02 184.62 737.85 189.11 735.91 C 195.63 732.80 202.29 729.64 207.74 724.81 C 209.96 722.88 212.27 719.57 210.37 716.65 C 207.86 713.06 202.82 714.60 199.33 715.56 Z" />
<path fill="#003f88" opacity="1.00" d=" M 895.90 729.38 C 898.90 723.92 901.05 717.07 907.08 714.19 C 913.11 712.03 919.44 715.33 924.32 718.74 C 928.34 721.45 930.08 726.49 928.85 731.15 C 938.54 731.70 948.22 732.23 957.91 732.72 C 956.89 735.15 955.68 737.51 954.32 739.78 C 946.05 739.06 937.75 738.54 929.47 738.04 C 936.17 741.72 943.03 745.11 949.89 748.50 C 948.86 750.76 947.80 753.00 946.65 755.20 C 929.68 746.69 912.82 737.99 895.90 729.38 M 905.43 725.92 C 910.61 728.57 915.80 731.20 920.98 733.87 C 921.97 731.55 923.39 728.66 921.51 726.39 C 918.87 723.42 914.98 721.51 911.06 721.09 C 908.17 720.96 906.64 723.76 905.43 725.92 Z" />
<path fill="#003f88" opacity="1.00" d=" M 893.34 733.87 C 895.34 735.04 897.33 736.21 899.34 737.39 C 897.33 740.91 895.20 744.36 893.12 747.84 C 898.03 750.81 902.95 753.78 907.90 756.69 C 909.96 753.29 911.99 749.86 914.08 746.47 C 916.03 747.64 917.97 748.81 919.93 749.99 C 917.88 753.39 915.86 756.81 913.78 760.19 C 919.09 763.55 924.54 766.68 929.91 769.96 C 932.05 766.40 934.20 762.83 936.33 759.25 C 938.35 760.40 940.34 761.63 942.32 762.88 C 938.90 768.55 935.51 774.24 932.09 779.91 C 915.84 770.07 899.44 760.48 883.32 750.46 C 886.75 744.98 890.02 739.41 893.34 733.87 Z" />
<path fill="#003f88" opacity="1.00" d=" M 217.46 735.64 C 219.99 735.21 222.65 735.13 225.14 735.88 C 231.50 737.76 235.39 745.61 232.73 751.77 C 230.83 756.42 226.95 759.86 223.04 762.86 C 217.32 767.07 211.12 770.64 204.63 773.53 C 199.77 775.55 194.42 777.43 189.10 776.33 C 182.00 774.98 177.54 766.26 180.70 759.73 C 184.32 752.30 191.75 747.83 198.55 743.65 C 204.48 740.22 210.68 736.97 217.46 735.64 M 217.11 743.21 C 209.97 745.38 203.54 749.35 197.25 753.29 C 193.42 755.93 189.25 758.69 187.17 763.01 C 185.65 766.15 188.62 769.81 191.97 769.45 C 198.37 769.03 204.05 765.63 209.56 762.62 C 215.08 759.33 220.95 756.12 224.99 750.97 C 226.64 749.00 227.06 745.82 225.07 743.93 C 222.91 741.92 219.69 742.53 217.11 743.21 Z" />
<path fill="#003f88" opacity="1.00" d=" M 193.67 790.17 C 209.04 779.08 224.30 767.82 239.71 756.79 C 241.14 758.77 242.57 760.76 244.01 762.74 C 230.62 772.70 216.82 782.15 203.63 792.37 C 206.03 795.35 208.24 798.49 210.43 801.63 C 208.57 802.95 206.72 804.29 204.87 805.63 C 201.11 800.50 197.32 795.38 193.67 790.17 Z" />
<path fill="#003f88" opacity="1.00" d=" M 860.14 783.52 C 861.65 781.57 863.27 779.72 864.87 777.87 C 879.56 789.82 894.34 801.66 909.00 813.66 C 907.45 815.51 905.95 817.40 904.50 819.33 C 889.56 807.60 874.88 795.51 860.14 783.52 Z" />
<path fill="#003f88" opacity="1.00" d=" M 253.58 786.68 C 260.19 784.60 267.53 789.17 268.91 795.85 C 270.08 801.34 266.95 806.50 263.51 810.48 C 258.29 816.39 252.02 821.30 245.48 825.66 C 240.79 828.60 235.67 831.45 229.99 831.55 C 224.11 831.68 218.90 826.77 218.05 821.08 C 217.43 816.38 219.85 812.00 222.68 808.47 C 227.16 802.96 232.77 798.50 238.47 794.33 C 243.10 791.10 248.02 788.00 253.58 786.68 M 252.50 794.66 C 246.36 797.36 241.09 801.65 235.90 805.83 C 231.88 809.33 227.48 812.94 225.43 818.01 C 224.12 820.97 226.72 824.58 229.93 824.33 C 235.42 823.87 239.98 820.34 244.39 817.34 C 249.85 813.19 255.48 809.04 259.68 803.55 C 261.42 801.26 263.20 797.73 260.95 795.17 C 258.86 792.55 255.12 793.55 252.50 794.66 Z" />
<path fill="#003f88" opacity="1.00" d=" M 854.40 790.76 C 868.82 803.12 883.09 815.64 897.42 828.10 C 896.02 829.71 894.59 831.30 893.14 832.88 C 881.41 827.86 869.66 822.88 857.87 818.02 C 866.88 826.13 876.20 833.93 885.29 841.97 C 883.85 843.66 882.41 845.34 880.96 847.03 C 866.59 834.67 852.39 822.12 838.01 809.78 C 839.36 808.11 840.75 806.48 842.17 804.87 C 854.08 809.89 865.97 814.96 877.94 819.83 C 868.50 811.99 859.36 803.80 850.09 795.77 C 851.53 794.10 852.97 792.43 854.40 790.76 Z" />
<path fill="#003f88" opacity="1.00" d=" M 235.99 844.36 C 249.48 831.00 263.26 817.92 276.92 804.73 C 281.43 809.41 285.98 814.06 290.45 818.79 C 288.81 820.46 287.07 822.04 285.29 823.57 C 282.61 820.61 279.80 817.77 277.03 814.91 C 272.95 818.75 269.02 822.75 264.88 826.54 C 267.47 829.63 270.50 832.32 273.10 835.41 C 271.49 836.87 269.94 838.38 268.43 839.94 C 265.44 837.25 262.79 834.22 259.95 831.38 C 253.67 837.44 247.39 843.50 241.13 849.56 C 239.44 847.80 237.73 846.07 235.99 844.36 Z" />
<path fill="#003f88" opacity="1.00" d=" M 792.71 854.01 C 792.86 848.20 798.19 843.03 804.03 843.24 C 807.84 843.25 811.16 845.37 814.30 847.30 C 813.21 849.58 811.96 851.79 810.60 853.93 C 807.94 851.36 802.33 848.34 800.14 852.99 C 799.27 858.64 803.19 863.54 806.07 868.02 C 811.04 874.60 815.88 881.74 822.96 886.22 C 825.96 888.53 831.24 885.98 830.06 881.96 C 828.54 876.98 824.73 873.15 821.54 869.18 C 819.62 870.76 817.68 872.32 815.72 873.84 C 814.26 872.00 812.84 870.15 811.43 868.29 C 815.35 865.27 819.22 862.20 823.13 859.18 C 827.91 865.92 834.53 871.78 836.87 879.94 C 839.24 887.16 832.43 894.93 825.08 894.33 C 819.65 893.84 815.32 890.10 811.58 886.47 C 806.40 881.22 801.81 875.38 797.86 869.16 C 795.13 864.57 792.45 859.51 792.71 854.01 Z" />
<path fill="#003f88" opacity="1.00" d=" M 321.86 848.81 C 324.20 846.14 326.59 850.63 328.69 851.68 C 320.02 868.96 311.44 886.28 302.80 903.57 C 300.81 902.05 298.83 900.51 296.87 898.96 C 298.57 895.64 300.28 892.32 301.97 888.99 C 299.24 886.86 296.50 884.73 293.80 882.56 C 290.93 884.98 288.23 887.60 285.36 890.03 C 283.44 888.46 281.49 886.93 279.50 885.46 C 293.50 873.12 307.79 861.08 321.86 848.81 M 299.12 878.00 C 300.92 879.81 303.08 881.20 305.07 882.79 C 308.63 876.16 312.17 869.53 315.73 862.90 C 310.12 867.83 304.32 872.68 299.12 878.00 Z" />
<path fill="#003f88" opacity="1.00" d=" M 779.35 860.63 C 781.21 859.38 783.09 858.17 785.00 857.00 C 795.06 873.05 805.08 889.14 815.14 905.19 C 813.38 906.37 811.60 907.51 809.80 908.64 C 799.79 900.44 790.04 891.94 779.93 883.87 C 786.61 894.16 793.01 904.63 799.51 915.04 C 797.62 916.22 795.74 917.40 793.85 918.58 C 783.80 902.49 773.72 886.42 763.72 870.31 C 765.50 869.18 767.29 868.06 769.09 866.95 C 779.06 875.22 789.03 883.49 798.97 891.80 C 792.30 881.49 785.94 870.99 779.35 860.63 Z" />
<path fill="#003f88" opacity="1.00" d=" M 336.53 860.54 C 336.88 860.17 337.58 859.45 337.92 859.09 C 343.07 862.24 349.29 865.12 351.74 871.04 C 353.54 877.47 349.53 883.78 345.43 888.43 C 342.38 891.98 337.36 893.05 333.00 891.47 C 331.62 901.11 330.29 910.77 328.88 920.41 C 326.63 919.05 324.43 917.64 322.23 916.23 C 323.53 908.02 324.97 899.84 326.00 891.59 C 321.78 897.96 317.90 904.54 313.77 910.98 C 311.68 909.68 309.59 908.38 307.51 907.06 C 317.16 891.53 326.92 876.08 336.53 860.54 M 340.29 868.60 C 337.17 873.52 334.11 878.49 331.01 883.42 C 333.24 884.69 336.14 886.29 338.57 884.49 C 341.57 882.14 343.71 878.64 344.54 874.94 C 345.17 871.93 342.38 870.08 340.29 868.60 Z" />
<path fill="#003f88" opacity="1.00" d=" M 357.60 872.07 C 364.74 876.02 371.83 880.08 378.80 884.33 C 377.63 886.25 376.48 888.18 375.33 890.12 C 372.90 888.71 370.47 887.30 368.04 885.90 C 359.67 900.33 351.38 914.81 342.98 929.23 C 340.89 928.01 338.79 926.80 336.67 925.63 C 344.87 911.14 353.19 896.71 361.66 882.38 C 359.26 880.80 356.80 879.34 354.29 877.96 C 355.40 875.99 356.51 874.04 357.60 872.07 Z" />
<path fill="#003f88" opacity="1.00" d=" M 745.86 881.12 C 747.81 880.02 749.76 878.93 751.73 877.86 C 764.24 892.60 776.90 907.21 789.35 922.01 C 787.20 923.24 785.04 924.47 782.87 925.66 C 780.47 922.80 778.06 919.94 775.70 917.06 C 772.65 918.72 769.64 920.43 766.58 922.06 C 767.68 925.64 768.97 929.15 770.16 932.70 C 767.97 933.96 765.78 935.23 763.42 936.13 C 757.68 917.76 751.68 899.47 745.86 881.12 M 764.21 915.54 C 766.54 914.36 768.87 913.15 771.13 911.82 C 766.59 905.84 761.61 900.21 757.18 894.15 C 759.03 901.43 762.00 908.36 764.21 915.54 Z" />
<path fill="#003f88" opacity="1.00" d=" M 356.02 936.59 C 364.26 919.50 372.61 902.47 380.94 885.42 C 383.16 886.49 385.37 887.57 387.58 888.67 C 384.40 895.28 381.07 901.81 378.01 908.49 C 381.22 909.95 384.36 911.55 387.59 912.99 C 390.62 906.39 393.92 899.93 397.04 893.38 C 399.29 894.37 401.54 895.39 403.72 896.56 C 395.45 913.59 387.06 930.56 378.86 947.63 C 376.59 946.60 374.35 945.55 372.16 944.40 C 376.28 935.96 380.42 927.54 384.51 919.09 C 381.36 917.53 378.20 915.98 375.02 914.48 C 370.79 922.89 366.87 931.46 362.52 939.81 C 360.37 938.69 358.20 937.62 356.02 936.59 Z" />
<path fill="#003f88" opacity="1.00" d=" M 727.18 890.92 C 729.18 889.50 731.53 888.68 733.74 887.64 C 742.02 904.68 750.33 921.70 758.63 938.72 C 756.41 939.80 754.20 940.88 751.98 941.97 C 743.72 924.95 735.26 908.02 727.18 890.92 Z" />
<path fill="#003f88" opacity="1.00" d=" M 712.09 897.79 C 714.31 896.79 716.54 895.80 718.78 894.83 C 724.03 906.68 729.31 918.51 734.58 930.36 C 736.59 935.31 739.90 940.35 738.90 945.94 C 737.38 951.06 731.37 952.43 726.70 952.74 C 725.45 949.99 724.23 947.23 722.99 944.49 C 725.53 945.44 728.59 946.62 731.07 944.84 C 732.48 942.91 730.89 940.62 730.31 938.71 C 724.25 925.06 718.17 911.43 712.09 897.79 Z" />
<path fill="#003f88" opacity="1.00" d=" M 685.25 909.11 C 691.34 906.79 697.40 904.40 703.51 902.14 C 704.32 904.30 705.14 906.47 705.95 908.66 C 702.21 910.07 698.47 911.51 694.73 912.95 C 696.65 918.36 698.75 923.72 700.88 929.07 C 704.57 927.61 708.29 926.20 712.01 924.80 C 712.83 926.92 713.64 929.04 714.45 931.18 C 710.72 932.66 706.93 933.96 703.27 935.58 C 705.61 941.37 707.77 947.24 710.05 953.06 C 713.94 951.56 717.82 950.04 721.74 948.61 C 722.54 950.76 723.37 952.91 724.21 955.06 C 717.97 957.41 711.85 960.12 705.47 962.06 C 698.88 944.36 691.92 926.79 685.25 909.11 Z" />
<path fill="#003f88" opacity="1.00" d=" M 409.10 924.03 C 407.18 915.26 413.76 905.03 423.07 904.67 C 428.52 904.34 433.17 907.87 436.11 912.15 C 434.84 915.46 433.71 918.84 432.25 922.10 C 431.19 918.06 429.82 912.97 425.12 911.95 C 419.10 910.61 415.21 917.86 416.35 922.99 C 418.20 929.41 423.66 934.22 424.90 940.88 C 426.05 949.07 420.52 958.19 412.13 959.73 C 405.92 960.84 399.96 957.20 396.17 952.53 C 397.34 949.29 398.57 946.08 399.85 942.89 C 401.35 946.88 403.36 951.71 408.08 952.60 C 414.59 953.86 419.40 945.65 416.94 940.08 C 414.64 934.57 410.16 930.05 409.10 924.03 Z" />
<path fill="#003f88" opacity="1.00" d=" M 671.98 912.93 C 674.33 912.23 676.68 911.55 679.04 910.88 C 684.35 929.06 689.42 947.31 694.78 965.48 C 692.42 966.24 690.05 966.96 687.66 967.59 C 685.09 958.57 682.45 949.58 679.94 940.55 C 676.53 941.42 673.16 942.42 669.78 943.35 C 672.21 952.42 674.90 961.42 677.50 970.45 C 675.12 971.24 672.70 971.91 670.27 972.51 C 665.25 954.25 659.80 936.10 654.73 917.85 C 657.08 917.15 659.44 916.48 661.82 915.84 C 663.82 922.87 665.84 929.90 667.87 936.93 C 671.26 935.96 674.65 934.98 678.04 934.00 C 675.99 926.99 674.02 919.95 671.98 912.93 Z" />
<path fill="#003f88" opacity="1.00" d=" M 444.72 914.78 C 450.18 911.94 456.85 913.95 461.24 917.84 C 460.53 920.48 459.82 923.13 459.10 925.77 C 456.69 923.28 453.94 920.17 450.08 920.68 C 445.88 921.25 443.62 925.39 441.94 928.84 C 438.79 936.22 436.71 944.12 435.89 952.11 C 435.55 955.77 435.99 960.56 439.88 962.22 C 442.97 963.89 446.49 962.65 449.44 961.30 C 448.70 964.00 447.98 966.71 447.27 969.43 C 442.30 970.65 436.63 969.83 432.79 966.27 C 428.98 962.66 428.17 957.05 428.41 952.05 C 428.86 944.36 430.84 936.81 433.53 929.61 C 435.85 923.85 439.02 917.80 444.72 914.78 Z" />
<path fill="#003f88" opacity="1.00" d=" M 451.99 973.13 C 455.94 954.58 459.88 936.04 463.82 917.49 C 466.23 917.98 468.66 918.50 471.08 919.03 C 467.14 937.56 463.17 956.08 459.28 974.62 C 456.84 974.14 454.41 973.68 451.99 973.13 Z" />
<path fill="#003f88" opacity="1.00" d=" M 630.31 923.21 C 637.71 921.68 645.03 919.80 652.42 918.21 C 651.10 935.58 649.71 952.95 648.39 970.32 C 652.75 969.36 657.09 968.32 661.44 967.31 C 661.97 969.58 662.50 971.86 663.03 974.14 C 655.55 975.85 648.09 977.62 640.60 979.29 C 641.91 961.88 643.32 944.47 644.68 927.06 C 640.40 928.04 636.12 929.02 631.85 930.06 C 631.26 927.79 630.74 925.50 630.31 923.21 Z" />
<path fill="#003f88" opacity="1.00" d=" M 479.97 921.55 C 486.37 922.67 492.78 923.78 499.17 924.95 C 498.80 927.22 498.39 929.47 498.01 931.76 C 494.00 931.16 490.04 930.40 486.06 929.72 C 485.00 935.38 484.04 941.05 483.04 946.72 C 486.95 947.35 490.84 948.08 494.76 948.73 C 494.43 950.95 494.06 953.17 493.75 955.41 C 489.75 954.91 485.81 954.02 481.81 953.53 C 480.79 959.68 479.61 965.82 478.60 971.98 C 482.69 972.71 486.80 973.41 490.89 974.19 C 490.48 976.44 490.09 978.70 489.74 980.98 C 483.21 980.02 476.77 978.61 470.23 977.72 C 473.12 958.94 476.74 940.28 479.97 921.55 Z" />
<path fill="#003f88" opacity="1.00" d=" M 620.19 973.07 C 622.66 973.93 625.13 974.79 627.60 975.66 C 625.16 981.97 622.75 988.29 620.28 994.59 C 618.41 993.83 616.53 993.09 614.69 992.28 C 616.58 985.89 618.31 979.45 620.19 973.07 Z" />
</g>
<g id="#fffeffff">
</g>
<g id="#f9f9f9ff">
<path fill="#f9f9f9" opacity="1.00" d=" M 0.00 1091.00 L 0.90 1091.00 C 373.64 1091.01 746.37 1091.01 1119.10 1091.00 L 1120.00 1091.54 L 1120.00 1092.00 L 0.00 1092.00 L 0.00 1091.00 Z" />
</g>
</svg>
